<?xml version="1.0" encoding="utf-8"?>
<!-- Generator: Adobe Illustrator 24.0.3, SVG Export Plug-In . SVG Version: 6.00 Build 0)  -->
<svg version="1.1" id="Layer_1" xmlns="http://www.w3.org/2000/svg" xmlns:xlink="http://www.w3.org/1999/xlink" x="0px" y="0px"
	 viewBox="0 0 1000 1000" style="enable-background:new 0 0 1000 1000;" xml:space="preserve">
<style type="text/css">
	.st0{fill:#DEDEDE;}
	.st1{fill:#969696;}
	.st2{fill:#B5B5B5;}
	.st3{fill:#F2F2F2;}
	.st4{fill:#808080;}
	.st5{fill:#A3A3A3;}
	.st6{fill:#FFFFFF;}
	.st7{fill:#696969;}
	.st8{fill:#5ACAFA;}
	.st9{fill:#1C99EB;}
	.st10{fill:#00AAFF;}
	.st11{fill:#939393;}
	.st12{fill:none;}
	.st13{fill:#8E8D92;}
	.st14{fill:#007AFF;}
	.st15{fill:#454545;}
	.st16{fill:#177BBD;}
	.st17{fill:#1A8FDB;}
	.st18{fill:#333333;}
	.st19{fill:#706F73;}
	.st20{fill:#454547;}
	.st21{fill:#5C5B5E;}
	.st22{fill:#CFCFCF;}
	.st23{fill:#666569;}
</style>
<g>
	<path class="st0" d="M678.84,872.58v29.81H291.35v-29.81c0.05-16.44,13.37-29.76,29.81-29.81h327.87
		C665.47,842.82,678.79,856.14,678.84,872.58z"/>
	<path class="st1" d="M634.13,783.16l14.9,59.61H321.16l14.9-59.61H634.13z"/>
	<path class="st2" d="M97.61,783.16c-32.92,0-59.61-26.69-59.61-59.61v-59.61h924v59.61c0,32.92-26.69,59.61-59.61,59.61H97.61z"/>
	<path class="st3" d="M962,97.61v566.32H38V97.61C38,64.69,64.69,38,97.61,38h804.77C935.31,38,962,64.69,962,97.61z"/>
	<path class="st4" d="M412.41,798.06h225.44l-3.73-14.9H336.06l-14.9,59.61h33.58C361.53,816.47,385.25,798.08,412.41,798.06
		L412.41,798.06z"/>
	<path class="st2" d="M338.81,842.77h-17.65c-16.44,0.05-29.76,13.37-29.81,29.81v29.81h387.48v-29.81H380.77
		C361.88,872.55,345.06,860.6,338.81,842.77z"/>
	<path class="st5" d="M932.19,663.94v59.61c0,16.46-13.34,29.81-29.81,29.81H97.61c-16.46,0-29.81-13.34-29.81-29.81v-59.61H38
		v59.61c0,32.92,26.69,59.61,59.61,59.61h804.77c32.92,0,59.61-26.69,59.61-59.61v-59.61H932.19z"/>
	<path class="st0" d="M902.39,38H97.61C64.69,38,38,64.69,38,97.61v566.32h29.81V97.61c0-16.46,13.34-29.81,29.81-29.81h804.77
		c16.46,0,29.81,13.34,29.81,29.81v566.32H962V97.61C962,64.69,935.31,38,902.39,38z"/>
	<path class="st6" d="M902.39,67.81H127.42c0,296.57,359.94,536.52,804.77,536.52V97.61C932.19,81.15,918.85,67.81,902.39,67.81z"/>
	<circle class="st4" cx="97.61" cy="723.55" r="14.9"/>
	<path class="st7" d="M97.61,723.55c-5.24-0.06-10.05-2.89-12.62-7.45c-1.42,2.23-2.21,4.81-2.28,7.45c0,8.23,6.67,14.9,14.9,14.9
		s14.9-6.67,14.9-14.9c-0.07-2.64-0.86-5.22-2.28-7.45C107.66,720.65,102.85,723.49,97.61,723.55z"/>
	<path class="st5" d="M97.61,738.45c-5.24-0.05-10.05-2.89-12.62-7.45c-1.42,2.23-2.21,4.81-2.28,7.45c0,8.23,6.67,14.9,14.9,14.9
		s14.9-6.67,14.9-14.9c-0.07-2.64-0.86-5.22-2.28-7.45C107.66,735.56,102.85,738.4,97.61,738.45z"/>
	<path class="st4" d="M157.23,708.65h59.61c8.23,0,14.9,6.67,14.9,14.9l0,0c0,8.23-6.67,14.9-14.9,14.9h-59.61
		c-8.23,0-14.9-6.67-14.9-14.9l0,0C142.32,715.32,148.99,708.65,157.23,708.65z"/>
	<path class="st7" d="M216.84,723.55h-59.61c-5.23-0.06-10.04-2.9-12.62-7.45c-1.42,2.23-2.21,4.81-2.28,7.45
		c0,8.23,6.67,14.9,14.9,14.9h59.61c8.23,0,14.9-6.67,14.9-14.9c-0.07-2.64-0.86-5.22-2.28-7.45
		C226.88,720.65,222.07,723.49,216.84,723.55z"/>
	<path class="st5" d="M216.84,738.45h-59.61c-5.23-0.06-10.04-2.9-12.62-7.45c-1.42,2.23-2.21,4.81-2.28,7.45
		c0,8.23,6.67,14.9,14.9,14.9h59.61c8.23,0,14.9-6.67,14.9-14.9c-0.07-2.64-0.86-5.22-2.28-7.45
		C226.88,735.56,222.07,738.39,216.84,738.45z"/>
	<path class="st8" d="M485.1,872.58h417.29v29.81c0,32.92-26.69,59.61-59.61,59.61H544.71c-32.92,0-59.61-26.69-59.61-59.61V872.58z
		"/>
	<path class="st8" d="M902.39,306.26v14.9H798.06c0,0,0,44.71-29.81,44.71H619.23c-29.81,0-29.81-44.71-29.81-44.71H485.1v-14.9
		c0-32.92,26.69-59.61,59.61-59.61h298.06C875.7,246.65,902.39,273.33,902.39,306.26z"/>
	<path class="st0" d="M902.39,321.16v551.42H485.1V321.16h104.32c0,0,0,44.71,29.81,44.71h149.03c29.81,0,29.81-44.71,29.81-44.71
		H902.39z"/>
	<path class="st8" d="M619.23,365.87h149.03c29.81,0,29.81-44.71,29.81-44.71H589.42C589.42,321.16,589.42,365.87,619.23,365.87z"/>
	<path class="st9" d="M842.77,932.19H544.71c-32.92,0-59.61-26.69-59.61-59.61v29.81c0,32.92,26.69,59.61,59.61,59.61h298.06
		c32.92,0,59.61-26.69,59.61-59.61v-29.81C902.39,905.5,875.7,932.19,842.77,932.19z"/>
	<path class="st3" d="M798.06,321.16c0,0,0,44.71-29.81,44.71H619.23c-29.81,0-29.81-44.71-29.81-44.71h-44.71
		c0,247.13,159.97,447.1,357.68,447.1v-447.1H798.06z"/>
	<path class="st9" d="M544.71,276.45h298.06c27.13,0.04,50.79,18.43,57.51,44.71h2.1v-14.9c0-32.92-26.69-59.61-59.61-59.61H544.71
		c-32.92,0-59.61,26.69-59.61,59.61v14.9h2.1C493.92,294.88,517.58,276.49,544.71,276.45z"/>
	<circle class="st10" cx="693.74" cy="604.32" r="149.03"/>
	<path class="st3" d="M589.42,619.23l74.52,74.52l134.13-134.13l-44.71-44.71l-89.42,89.42l-29.81-29.81L589.42,619.23z"/>
	<path class="st11" d="M425.48,291.35v-59.61h-33.25c-3.35-14.71-9.18-28.75-17.23-41.51l23.53-23.53l-42.15-42.15l-23.53,23.53
		c-12.76-8.05-26.79-13.88-41.51-17.23V97.61h-59.61v33.25c-14.71,3.35-28.75,9.18-41.51,17.23l-23.53-23.53l-42.15,42.15
		l23.53,23.53c-8.05,12.76-13.88,26.79-17.23,41.51H97.61v59.61h33.25c3.35,14.71,9.18,28.75,17.23,41.51l-23.53,23.53l42.15,42.15
		l23.53-23.53c12.76,8.05,26.79,13.88,41.51,17.23v33.25h59.61v-33.25c14.71-3.35,28.75-9.18,41.51-17.23l23.53,23.53l42.15-42.15
		l-23.53-23.53c8.05-12.76,13.88-26.79,17.23-41.51L425.48,291.35z"/>
	<circle class="st6" cx="261.55" cy="261.55" r="59.61"/>
	<path class="st7" d="M261.55,187.03c-41.15,0-74.52,33.36-74.52,74.52c0,41.15,33.36,74.52,74.52,74.52
		c41.15,0,74.52-33.36,74.52-74.52C336.06,220.39,302.7,187.03,261.55,187.03z M261.55,321.16c-32.92,0-59.61-26.69-59.61-59.61
		s26.69-59.61,59.61-59.61s59.61,26.69,59.61,59.61S294.47,321.16,261.55,321.16z"/>
	<path class="st2" d="M425.48,291.35v-59.61h-33.25c-3.35-14.71-9.18-28.75-17.23-41.51l23.53-23.53l-42.15-42.15l-23.53,23.53
		c-12.76-8.05-26.79-13.88-41.51-17.23V97.61h-59.61v33.25c-14.71,3.35-28.75,9.18-41.51,17.23l-23.53-23.53l-42.15,42.15
		l23.53,23.53c-8.05,12.76-13.88,26.79-17.23,41.51H97.61v59.61h33.25c3.35,14.71,9.18,28.75,17.23,41.51l-23.53,23.53l42.15,42.15
		l23.53-23.53c12.76,8.05,26.79,13.88,41.51,17.23v33.25h59.61v-33.25c14.71-3.35,28.75-9.18,41.51-17.23l23.53,23.53l42.15-42.15
		l-23.53-23.53c8.05-12.76,13.88-26.79,17.23-41.51L425.48,291.35z M373.64,339.15l-34.49,34.49l-19.25-19.25
		c-10.44,6.59-21.93,11.35-33.96,14.1v27.2h-48.76v-27.2c-12.04-2.75-23.52-7.51-33.96-14.1l-19.25,19.25l-34.49-34.49l19.25-19.25
		c-6.59-10.44-11.35-21.93-14.1-33.96h-27.2v-48.76h27.2c2.75-12.04,7.51-23.52,14.1-33.96l-19.25-19.25l34.49-34.49l19.25,19.25
		c10.44-6.59,21.93-11.35,33.96-14.1v-27.2h48.76v27.2c12.04,2.75,23.52,7.51,33.96,14.1l19.25-19.25l34.49,34.49l-19.25,19.25
		c6.59,10.44,11.35,21.93,14.1,33.96h27.2v48.76h-27.2c-2.75,12.04-7.51,23.52-14.1,33.96L373.64,339.15z"/>
	<circle class="st12" cx="425.48" cy="604.32" r="59.61"/>
	<path class="st13" d="M365.87,604.32c0-32.92,26.69-59.61,59.61-59.61s59.61,26.69,59.61,59.61V484.37
		c-9.47-4.76-19.48-8.36-29.81-10.73v-33.25h-59.61v33.25c-14.71,3.35-28.75,9.18-41.51,17.23l-23.53-23.53l-42.15,42.15
		l23.53,23.53c-8.05,12.76-13.88,26.79-17.23,41.51h-33.25v59.61h33.25c2.37,10.33,5.97,20.34,10.73,29.81h119.96
		C392.56,663.94,365.87,637.25,365.87,604.32L365.87,604.32z"/>
	<path class="st13" d="M425.48,663.94h59.61v-59.61C485.1,637.25,458.41,663.94,425.48,663.94z"/>
	<path class="st11" d="M663.94,82.71h163.94c8.23,0,14.9,6.67,14.9,14.9l0,0c0,8.23-6.67,14.9-14.9,14.9H663.94
		c-8.23,0-14.9-6.67-14.9-14.9l0,0C649.03,89.38,655.7,82.71,663.94,82.71z"/>
	<path class="st11" d="M872.58,82.71h14.9c8.23,0,14.9,6.67,14.9,14.9l0,0c0,8.23-6.67,14.9-14.9,14.9h-14.9
		c-8.23,0-14.9-6.67-14.9-14.9l0,0C857.68,89.38,864.35,82.71,872.58,82.71z"/>
	<path class="st14" d="M699.15,658.53l-35.22,35.22l-74.52-74.52l23.85-23.77c-19.01-29.12-27.01-64.06-22.58-98.56
		c-59.38,56.94-61.36,151.23-4.43,210.61c56.94,59.38,151.23,61.36,210.61,4.43c24.83-23.8,40.65-55.47,44.78-89.61
		c-37.69,36.49-91.89,50.26-142.43,36.2H699.15z"/>
	<path class="st0" d="M663.94,693.74l35.22-35.22c-35.42-9.73-66-32.19-85.89-63.07l-23.85,23.77L663.94,693.74z"/>
	<path class="st15" d="M649.03,902.39h89.42c8.23,0,14.9,6.67,14.9,14.9l0,0c0,8.23-6.67,14.9-14.9,14.9h-89.42
		c-8.23,0-14.9-6.67-14.9-14.9l0,0C634.13,909.06,640.8,902.39,649.03,902.39z"/>
	<path class="st16" d="M738.45,932.19h-89.42c-5.23-0.06-10.04-2.9-12.62-7.45c-1.42,2.23-2.21,4.81-2.28,7.45
		c0,8.23,6.67,14.9,14.9,14.9h89.42c8.23,0,14.9-6.67,14.9-14.9c-0.07-2.64-0.86-5.22-2.28-7.45
		C748.49,929.3,743.69,932.14,738.45,932.19z"/>
	<path class="st15" d="M649.03,291.35h89.42c8.23,0,14.9,6.67,14.9,14.9l0,0c0,8.23-6.67,14.9-14.9,14.9h-89.42
		c-8.23,0-14.9-6.67-14.9-14.9l0,0C634.13,298.03,640.8,291.35,649.03,291.35z"/>
	<path class="st17" d="M738.45,321.16h-89.42c-5.23-0.06-10.04-2.9-12.62-7.45c-1.42,2.23-2.21,4.81-2.28,7.45
		c0,8.23,6.67,14.9,14.9,14.9h89.42c8.23,0,14.9-6.67,14.9-14.9c-0.07-2.64-0.86-5.22-2.28-7.45
		C748.49,318.26,743.69,321.1,738.45,321.16z"/>
	<path class="st18" d="M738.45,306.26h-89.42c-5.23-0.06-10.04-2.9-12.62-7.45c-1.42,2.23-2.21,4.81-2.28,7.45
		c0,8.23,6.67,14.9,14.9,14.9h89.42c8.23,0,14.9-6.67,14.9-14.9c-0.07-2.64-0.86-5.22-2.28-7.45
		C748.49,303.36,743.69,306.2,738.45,306.26z"/>
	<path class="st18" d="M738.45,917.29h-89.42c-5.23-0.06-10.04-2.9-12.62-7.45c-1.42,2.23-2.21,4.81-2.28,7.45
		c0,8.23,6.67,14.9,14.9,14.9h89.42c8.23,0,14.9-6.67,14.9-14.9c-0.07-2.64-0.86-5.22-2.28-7.45
		C748.49,914.39,743.69,917.23,738.45,917.29z"/>
	<path class="st2" d="M425.48,842.77h59.61v29.81h-59.61V842.77z"/>
	<path class="st19" d="M425.48,798.06h59.61v44.71h-59.61V798.06z"/>
	<path class="st19" d="M425.48,663.94h59.61v89.42h-59.61V663.94z"/>
	<path class="st20" d="M425.48,783.16h59.61v14.9h-59.61V783.16z"/>
	<path class="st4" d="M425.48,872.58h59.61v29.81h-59.61V872.58z"/>
	<path class="st21" d="M425.48,753.35h59.61v29.81h-59.61V753.35z"/>
	<path class="st3" d="M455.29,473.64c10.33,2.37,20.34,5.97,29.81,10.73V306.26c0.06-10.49,2.91-20.78,8.26-29.81h-8.26
		c-32.92,0-59.61,26.69-59.61,59.61v104.32h29.81V473.64z"/>
	<path class="st22" d="M485.1,604.32c0-32.92-26.69-59.61-59.61-59.61v119.23C458.41,663.94,485.1,637.25,485.1,604.32z"/>
	<path class="st21" d="M425.48,484.69v60.02c32.92,0,59.61,26.69,59.61,59.61v-90.27C464.52,504.87,444.65,495.09,425.48,484.69
		L425.48,484.69z"/>
	<path class="st19" d="M485.1,514.05v-29.69c-9.47-4.76-19.48-8.36-29.81-10.73v-33.25h-29.81v44.31
		C444.67,495.06,464.54,504.84,485.1,514.05z"/>
	<path class="st23" d="M485.1,604.32c0,32.92-26.69,59.61-59.61,59.61h59.61V604.32z"/>
</g>
</svg>
