<?xml version="1.0" encoding="utf-8"?>
<!-- Generator: Adobe Illustrator 24.0.3, SVG Export Plug-In . SVG Version: 6.00 Build 0)  -->
<svg version="1.1" id="Layer_1" xmlns="http://www.w3.org/2000/svg" xmlns:xlink="http://www.w3.org/1999/xlink" x="0px" y="0px"
	 viewBox="0 0 1000 1000" style="enable-background:new 0 0 1000 1000;" xml:space="preserve">
<style type="text/css">
	.st0{fill:#FD9B05;}
	.st1{fill:#2B3543;}
</style>
<g>
	<path class="st0" d="M26,591.26c8.37-3.49,15.25,0.12,22.41,4.1c163.27,90.93,338.38,129.98,524.65,117.88
		c98.53-6.4,193.52-29.4,285.08-66.44c5.13-2.07,10.25-4.55,15.62-5.54c6.56-1.21,12.21,1.46,15.26,7.78
		c2.78,5.76,1.13,11.1-3.46,15.01c-5.61,4.78-11.56,9.24-17.72,13.31c-90.39,59.82-190.74,91.95-297.71,102.39
		C363.3,799.92,182.08,739.11,26,602.37C26,598.66,26,594.96,26,591.26z"/>
	<path class="st0" d="M974,631.99c-6.75,4.15-5.62,11.73-7.5,17.87c-10.24,33.45-24.94,64.29-51.04,88.52
		c-3.84,3.56-8.15,9.37-14.14,5.69c-6.66-4.09-1.8-10.06,0.07-14.8c10.82-27.51,21.66-55.03,27.03-84.25
		c4.75-25.81-1.28-33.61-27.64-36.17c-28.39-2.75-56.58,0.21-84.77,3.43c-6.18,0.7-15.15,5.13-18.27-2.87
		c-3.07-7.86,5.74-11.47,11.37-14.4c53.27-27.75,108.12-34.23,164.9-11.15C974,599.9,974,615.94,974,631.99z"/>
	<path class="st1" d="M512.3,288.25c-12.22,50.98-23.37,97.58-34.58,144.17c-4.61,19.16-9.61,38.23-13.93,57.45
		c-2.44,10.86-8.81,15.6-19.61,15.41c-8.01-0.14-16.04-0.23-24.05,0.02c-10.9,0.34-17.17-4.97-20.25-15.13
		c-25.19-83.07-50.43-166.13-75.73-249.16c-3.47-11.4,0.54-16.45,12.32-15.85c4.31,0.22,8.7,0.53,12.94-0.05
		c19.38-2.64,28.55,5.19,33.17,24.83c15.08,64.11,32.09,127.77,48.41,191.84c6.53-1.66,5.17-7.39,6.17-11.57
		c14.58-61.1,29.81-122.06,43.1-183.44c4.25-19.61,15.21-22.19,31.75-21.84c16.12,0.34,29.39-0.36,34.07,21.16
		c14.52,66.74,31.1,133.04,48.18,205.01c13.84-53.24,26.33-101.21,38.78-149.18c5.1-19.67,9.84-39.44,15.25-59.02
		c4.17-15.1,40.76-25.82,52.83-15.74c5.32,4.45,3.38,10.39,1.81,15.45c-25.7,82.91-51.61,165.75-77.47,248.61
		c-3.19,10.23-10.19,14.88-20.86,14.39c-4.92-0.22-9.94-0.58-14.78,0.08c-18.1,2.47-26.56-5.21-30.56-23.17
		c-12.87-57.7-27.19-115.07-41-172.55C516.88,304.2,515.14,298.53,512.3,288.25z"/>
	<path class="st1" d="M243.38,470.64c-29.09,31.11-64.11,45.97-106.26,40.62c-37-4.7-62.13-26.56-69.62-59.31
		c-8.8-38.47,4.16-73.83,34.99-94.25c28.37-18.79,60.13-20.06,92.58-16.99c6.74,0.64,13.44,1.79,20.13,2.87
		c26.45,4.27,26.45,4.29,25.46-23.54c-1.44-40.36-17.92-56.83-57.89-58.68c-25.79-1.19-49.94,5.1-73.99,13.49
		c-7.39,2.58-16.78,12.78-23.9,0.33c-6.33-11.05-0.04-32.23,10.51-37.28c34.66-16.63,71.32-23.75,109.55-19.05
		c59.92,7.37,86.62,37.69,87.57,98.42c0.44,28.35,0.32,56.71,0.04,85.07c-0.24,24.22,0.78,47.95,13.31,69.83
		c8.38,14.64-4.67,19.29-13.4,25.34c-8.99,6.24-18.52,15.15-28.76,2.51C256.42,491.06,250.49,481.04,243.38,470.64z M241.22,399.65
		c-3.39-3.79,5.56-14.05-6.34-16.49c-29.13-5.96-58.48-11.12-87.44,0.07c-19.58,7.56-28.21,24.29-26.63,47.84
		c1.24,18.37,9.17,32.07,27.42,37.53C194.62,482.47,239.93,449.63,241.22,399.65z"/>
	<path class="st1" d="M828.46,513.69c-32.13-0.37-56.68-5.39-80.68-14.07c-15.49-5.6-22.07-15.32-21.43-32.15
		c0.59-15.57,6.68-18.49,19.61-12.61c28.15,12.8,57.69,17.14,88.38,14.81c9.32-0.71,18.21-2.75,26.65-6.88
		c13.33-6.53,20.87-16.66,21.15-31.94c0.28-14.84-7.11-25.19-19.89-30.49c-17.58-7.29-35.91-12.76-53.91-19.05
		c-9.87-3.45-20.02-6.27-29.51-10.57c-30.11-13.65-47.79-36.85-48.6-70.32c-0.82-34.11,17.95-57.45,47.26-71.16
		c42.34-19.79,85.36-14.78,127.27,2.69c13.13,5.47,19.07,24.95,13.47,38.04c-4.2,9.82-11.2,5.27-16.99,2.69
		c-24.88-11.09-50.83-14.44-77.71-11.67c-24.86,2.56-38.04,12.57-40.68,30.5c-2.63,17.82,6.74,30.82,31.02,40.03
		c18.98,7.19,38.6,12.69,57.87,19.11c43.47,14.49,63.56,38.92,62.87,76.23c-0.71,37.93-24.71,67.12-65.42,79.75
		C853.77,511.4,838.06,514.03,828.46,513.69z"/>
</g>
</svg>
