<?xml version="1.0" encoding="utf-8"?>
<!-- Generator: Adobe Illustrator 24.0.3, SVG Export Plug-In . SVG Version: 6.00 Build 0)  -->
<svg version="1.1" id="Layer_1" xmlns="http://www.w3.org/2000/svg" xmlns:xlink="http://www.w3.org/1999/xlink" x="0px" y="0px"
	 viewBox="0 0 1000 1000" style="enable-background:new 0 0 1000 1000;" xml:space="preserve">
<style type="text/css">
	.st0{fill:#DEDEDE;}
	.st1{fill:#969696;}
	.st2{fill:#B5B5B5;}
	.st3{fill:#F2F2F2;}
	.st4{fill:#808080;}
	.st5{fill:#A3A3A3;}
	.st6{fill:#FFFFFF;}
	.st7{fill:#696969;}
	.st8{fill:#5ACAFA;}
	.st9{fill:#1C99EB;}
	.st10{fill:#00AAFF;}
	.st11{fill:#939393;}
	.st12{fill:none;}
	.st13{fill:#8E8D92;}
	.st14{fill:#007AFF;}
	.st15{fill:#454545;}
	.st16{fill:#177BBD;}
	.st17{fill:#1A8FDB;}
	.st18{fill:#333333;}
	.st19{fill:#706F73;}
	.st20{fill:#454547;}
	.st21{fill:#5C5B5E;}
	.st22{fill:#CFCFCF;}
	.st23{fill:#666569;}
	.st24{fill:#94A4AD;}
	.st25{fill:#6DC2F2;}
	.st26{fill:#F0F2F3;}
	.st27{fill:#D77976;}
	.st28{fill:#B3BEC4;}
	.st29{fill:#4596EC;}
	.st30{fill:#E25241;}
</style>
<g>
	<path class="st0" d="M-589.16,1468.58v29.81h-387.48v-29.81c0.05-16.44,13.37-29.76,29.81-29.81h327.87
		C-602.53,1438.82-589.21,1452.14-589.16,1468.58z"/>
	<path class="st1" d="M-633.87,1379.16l14.9,59.61h-327.87l14.9-59.61H-633.87z"/>
	<path class="st2" d="M-1170.39,1379.16c-32.92,0-59.61-26.69-59.61-59.61v-59.61h924v59.61c0,32.92-26.69,59.61-59.61,59.61
		H-1170.39z"/>
	<path class="st3" d="M-306,693.61v566.32h-924V693.61c0-32.92,26.69-59.61,59.61-59.61h804.77C-332.69,634-306,660.69-306,693.61z"
		/>
	<path class="st4" d="M-855.59,1394.06h225.44l-3.73-14.9h-298.06l-14.9,59.61h33.58C-906.47,1412.47-882.75,1394.08-855.59,1394.06
		L-855.59,1394.06z"/>
	<path class="st2" d="M-929.19,1438.77h-17.65c-16.44,0.05-29.76,13.37-29.81,29.81v29.81h387.48v-29.81h-298.06
		C-906.12,1468.55-922.94,1456.6-929.19,1438.77z"/>
	<path class="st5" d="M-335.81,1259.94v59.61c0,16.46-13.34,29.81-29.81,29.81h-804.77c-16.46,0-29.81-13.34-29.81-29.81v-59.61
		H-1230v59.61c0,32.92,26.69,59.61,59.61,59.61h804.77c32.92,0,59.61-26.69,59.61-59.61v-59.61H-335.81z"/>
	<path class="st0" d="M-365.61,634h-804.77c-32.92,0-59.61,26.69-59.61,59.61v566.32h29.81V693.61c0-16.46,13.34-29.81,29.81-29.81
		h804.77c16.46,0,29.81,13.34,29.81,29.81v566.32H-306V693.61C-306,660.69-332.69,634-365.61,634z"/>
	<path class="st6" d="M-365.61,663.81h-774.97c0,296.57,359.94,536.52,804.77,536.52V693.61
		C-335.81,677.15-349.15,663.81-365.61,663.81z"/>
	<circle class="st4" cx="-1170.39" cy="1319.55" r="14.9"/>
	<path class="st7" d="M-1170.39,1319.55c-5.24-0.05-10.05-2.89-12.62-7.45c-1.42,2.23-2.21,4.81-2.28,7.45
		c0,8.23,6.67,14.9,14.9,14.9s14.9-6.67,14.9-14.9c-0.07-2.64-0.86-5.22-2.28-7.45
		C-1160.34,1316.65-1165.15,1319.49-1170.39,1319.55z"/>
	<path class="st5" d="M-1170.39,1334.45c-5.24-0.06-10.05-2.89-12.62-7.45c-1.42,2.23-2.21,4.81-2.28,7.45
		c0,8.23,6.67,14.9,14.9,14.9s14.9-6.67,14.9-14.9c-0.07-2.64-0.86-5.22-2.28-7.45C-1160.34,1331.56-1165.15,1334.4-1170.39,1334.45
		z"/>
	<path class="st4" d="M-1110.77,1304.65h59.61c8.23,0,14.9,6.67,14.9,14.9l0,0c0,8.23-6.67,14.9-14.9,14.9h-59.61
		c-8.23,0-14.9-6.67-14.9-14.9l0,0C-1125.68,1311.32-1119.01,1304.65-1110.77,1304.65z"/>
	<path class="st7" d="M-1051.16,1319.55h-59.61c-5.23-0.06-10.04-2.9-12.62-7.45c-1.42,2.23-2.21,4.81-2.28,7.45
		c0,8.23,6.67,14.9,14.9,14.9h59.61c8.23,0,14.9-6.67,14.9-14.9c-0.07-2.64-0.86-5.22-2.28-7.45
		C-1041.12,1316.65-1045.93,1319.49-1051.16,1319.55z"/>
	<path class="st5" d="M-1051.16,1334.45h-59.61c-5.23-0.06-10.04-2.9-12.62-7.45c-1.42,2.23-2.21,4.81-2.28,7.45
		c0,8.23,6.67,14.9,14.9,14.9h59.61c8.23,0,14.9-6.67,14.9-14.9c-0.07-2.64-0.86-5.22-2.28-7.45
		C-1041.12,1331.56-1045.93,1334.39-1051.16,1334.45z"/>
	<path class="st8" d="M-782.9,1468.58h417.29v29.81c0,32.92-26.69,59.61-59.61,59.61h-298.06c-32.92,0-59.61-26.69-59.61-59.61
		V1468.58z"/>
	<path class="st8" d="M-365.61,902.26v14.9h-104.32c0,0,0,44.71-29.81,44.71h-149.03c-29.81,0-29.81-44.71-29.81-44.71H-782.9v-14.9
		c0-32.92,26.69-59.61,59.61-59.61h298.06C-392.3,842.65-365.61,869.33-365.61,902.26z"/>
	<path class="st0" d="M-365.61,917.16v551.42H-782.9V917.16h104.32c0,0,0,44.71,29.81,44.71h149.03c29.81,0,29.81-44.71,29.81-44.71
		H-365.61z"/>
	<path class="st8" d="M-648.77,961.87h149.03c29.81,0,29.81-44.71,29.81-44.71h-208.65C-678.58,917.16-678.58,961.87-648.77,961.87z
		"/>
	<path class="st9" d="M-425.23,1528.19h-298.06c-32.92,0-59.61-26.69-59.61-59.61v29.81c0,32.92,26.69,59.61,59.61,59.61h298.06
		c32.92,0,59.61-26.69,59.61-59.61v-29.81C-365.61,1501.5-392.3,1528.19-425.23,1528.19z"/>
	<path class="st3" d="M-469.94,917.16c0,0,0,44.71-29.81,44.71h-149.03c-29.81,0-29.81-44.71-29.81-44.71h-44.71
		c0,247.13,159.97,447.1,357.68,447.1v-447.1H-469.94z"/>
	<path class="st9" d="M-723.29,872.45h298.06c27.13,0.04,50.79,18.43,57.51,44.71h2.1v-14.9c0-32.92-26.69-59.61-59.61-59.61
		h-298.06c-32.92,0-59.61,26.69-59.61,59.61v14.9h2.1C-774.08,890.88-750.42,872.49-723.29,872.45z"/>
	<circle class="st10" cx="-574.26" cy="1200.32" r="149.03"/>
	<path class="st3" d="M-678.58,1215.23l74.52,74.52l134.13-134.13l-44.71-44.71l-89.42,89.42l-29.81-29.81L-678.58,1215.23z"/>
	<path class="st11" d="M-842.52,887.35v-59.61h-33.25c-3.35-14.71-9.18-28.75-17.23-41.51l23.53-23.53l-42.15-42.15l-23.53,23.53
		c-12.76-8.05-26.79-13.88-41.51-17.23v-33.25h-59.61v33.25c-14.71,3.35-28.75,9.18-41.51,17.23l-23.53-23.53l-42.15,42.15
		l23.53,23.53c-8.05,12.76-13.88,26.79-17.23,41.51h-33.25v59.61h33.25c3.35,14.71,9.18,28.75,17.23,41.51l-23.53,23.53l42.15,42.15
		l23.53-23.53c12.76,8.05,26.79,13.88,41.51,17.23v33.25h59.61v-33.25c14.71-3.35,28.75-9.18,41.51-17.23l23.53,23.53l42.15-42.15
		l-23.53-23.53c8.05-12.76,13.88-26.79,17.23-41.51H-842.52z"/>
	<circle class="st6" cx="-1006.45" cy="857.55" r="59.61"/>
	<path class="st7" d="M-1006.45,783.03c-41.15,0-74.52,33.36-74.52,74.52s33.36,74.52,74.52,74.52s74.52-33.36,74.52-74.52
		S-965.3,783.03-1006.45,783.03z M-1006.45,917.16c-32.92,0-59.61-26.69-59.61-59.61s26.69-59.61,59.61-59.61
		s59.61,26.69,59.61,59.61S-973.53,917.16-1006.45,917.16z"/>
	<path class="st2" d="M-842.52,887.35v-59.61h-33.25c-3.35-14.71-9.18-28.75-17.23-41.51l23.53-23.53l-42.15-42.15l-23.53,23.53
		c-12.76-8.05-26.79-13.88-41.51-17.23v-33.25h-59.61v33.25c-14.71,3.35-28.75,9.18-41.51,17.23l-23.53-23.53l-42.15,42.15
		l23.53,23.53c-8.05,12.76-13.88,26.79-17.23,41.51h-33.25v59.61h33.25c3.35,14.71,9.18,28.75,17.23,41.51l-23.53,23.53l42.15,42.15
		l23.53-23.53c12.76,8.05,26.79,13.88,41.51,17.23v33.25h59.61v-33.25c14.71-3.35,28.75-9.18,41.51-17.23l23.53,23.53l42.15-42.15
		l-23.53-23.53c8.05-12.76,13.88-26.79,17.23-41.51H-842.52z M-894.36,935.15l-34.49,34.49l-19.25-19.26
		c-10.44,6.59-21.93,11.35-33.96,14.1v27.2h-48.76v-27.2c-12.04-2.75-23.52-7.51-33.96-14.1l-19.26,19.26l-34.49-34.49l19.26-19.25
		c-6.59-10.44-11.35-21.93-14.1-33.96h-27.2v-48.76h27.2c2.75-12.04,7.51-23.52,14.1-33.96l-19.26-19.25l34.49-34.49l19.26,19.25
		c10.44-6.59,21.93-11.35,33.96-14.1v-27.2h48.76v27.2c12.04,2.75,23.52,7.51,33.96,14.1l19.25-19.25l34.49,34.49l-19.26,19.25
		c6.59,10.44,11.35,21.93,14.1,33.96h27.2v48.76h-27.2c-2.75,12.04-7.51,23.52-14.1,33.96L-894.36,935.15z"/>
	<circle class="st12" cx="-842.52" cy="1200.32" r="59.61"/>
	<path class="st13" d="M-902.13,1200.32c0-32.92,26.69-59.61,59.61-59.61c32.92,0,59.61,26.69,59.61,59.61v-119.96
		c-9.47-4.76-19.48-8.36-29.81-10.73v-33.25h-59.61v33.25c-14.71,3.35-28.75,9.18-41.51,17.23l-23.53-23.53l-42.15,42.15
		l23.53,23.53c-8.05,12.76-13.88,26.79-17.23,41.51h-33.25v59.61h33.25c2.37,10.33,5.97,20.34,10.73,29.81h119.96
		C-875.44,1259.94-902.13,1233.25-902.13,1200.32L-902.13,1200.32z"/>
	<path class="st13" d="M-842.52,1259.94h59.61v-59.61C-782.9,1233.25-809.59,1259.94-842.52,1259.94z"/>
	<path class="st11" d="M-604.06,678.71h163.94c8.23,0,14.9,6.67,14.9,14.9l0,0c0,8.23-6.67,14.9-14.9,14.9h-163.94
		c-8.23,0-14.9-6.67-14.9-14.9l0,0C-618.97,685.38-612.3,678.71-604.06,678.71z"/>
	<path class="st11" d="M-395.42,678.71h14.9c8.23,0,14.9,6.67,14.9,14.9l0,0c0,8.23-6.67,14.9-14.9,14.9h-14.9
		c-8.23,0-14.9-6.67-14.9-14.9l0,0C-410.32,685.38-403.65,678.71-395.42,678.71z"/>
	<path class="st14" d="M-568.85,1254.53l-35.22,35.22l-74.52-74.52l23.85-23.77c-19.01-29.12-27.01-64.06-22.58-98.56
		c-59.38,56.94-61.36,151.23-4.43,210.61c56.94,59.38,151.23,61.36,210.61,4.43c24.83-23.8,40.65-55.47,44.78-89.61
		c-37.69,36.49-91.89,50.26-142.43,36.2H-568.85z"/>
	<path class="st0" d="M-604.06,1289.74l35.22-35.22c-35.42-9.73-66-32.19-85.89-63.07l-23.85,23.77L-604.06,1289.74z"/>
	<path class="st15" d="M-618.97,1498.39h89.42c8.23,0,14.9,6.67,14.9,14.9l0,0c0,8.23-6.67,14.9-14.9,14.9h-89.42
		c-8.23,0-14.9-6.67-14.9-14.9l0,0C-633.87,1505.06-627.2,1498.39-618.97,1498.39z"/>
	<path class="st16" d="M-529.55,1528.19h-89.42c-5.23-0.06-10.04-2.9-12.62-7.45c-1.42,2.23-2.21,4.81-2.28,7.45
		c0,8.23,6.67,14.9,14.9,14.9h89.42c8.23,0,14.9-6.67,14.9-14.9c-0.07-2.64-0.86-5.22-2.28-7.45
		C-519.51,1525.3-524.31,1528.14-529.55,1528.19z"/>
	<path class="st15" d="M-618.97,887.35h89.42c8.23,0,14.9,6.67,14.9,14.9l0,0c0,8.23-6.67,14.9-14.9,14.9h-89.42
		c-8.23,0-14.9-6.67-14.9-14.9l0,0C-633.87,894.03-627.2,887.35-618.97,887.35z"/>
	<path class="st17" d="M-529.55,917.16h-89.42c-5.23-0.06-10.04-2.9-12.62-7.45c-1.42,2.23-2.21,4.81-2.28,7.45
		c0,8.23,6.67,14.9,14.9,14.9h89.42c8.23,0,14.9-6.67,14.9-14.9c-0.07-2.64-0.86-5.22-2.28-7.45
		C-519.51,914.26-524.31,917.1-529.55,917.16z"/>
	<path class="st18" d="M-529.55,902.26h-89.42c-5.23-0.06-10.04-2.9-12.62-7.45c-1.42,2.23-2.21,4.81-2.28,7.45
		c0,8.23,6.67,14.9,14.9,14.9h89.42c8.23,0,14.9-6.67,14.9-14.9c-0.07-2.64-0.86-5.22-2.28-7.45
		C-519.51,899.36-524.31,902.2-529.55,902.26z"/>
	<path class="st18" d="M-529.55,1513.29h-89.42c-5.23-0.06-10.04-2.9-12.62-7.45c-1.42,2.23-2.21,4.81-2.28,7.45
		c0,8.23,6.67,14.9,14.9,14.9h89.42c8.23,0,14.9-6.67,14.9-14.9c-0.07-2.64-0.86-5.22-2.28-7.45
		C-519.51,1510.39-524.31,1513.23-529.55,1513.29z"/>
	<path class="st2" d="M-842.52,1438.77h59.61v29.81h-59.61V1438.77z"/>
	<path class="st19" d="M-842.52,1394.06h59.61v44.71h-59.61V1394.06z"/>
	<path class="st19" d="M-842.52,1259.94h59.61v89.42h-59.61V1259.94z"/>
	<path class="st20" d="M-842.52,1379.16h59.61v14.9h-59.61V1379.16z"/>
	<path class="st4" d="M-842.52,1468.58h59.61v29.81h-59.61V1468.58z"/>
	<path class="st21" d="M-842.52,1349.35h59.61v29.81h-59.61V1349.35z"/>
	<path class="st3" d="M-812.71,1069.64c10.33,2.37,20.34,5.97,29.81,10.73V902.26c0.06-10.49,2.91-20.78,8.26-29.81h-8.26
		c-32.92,0-59.61,26.69-59.61,59.61v104.32h29.81V1069.64z"/>
	<path class="st22" d="M-782.9,1200.32c0-32.92-26.69-59.61-59.61-59.61v119.23C-809.59,1259.94-782.9,1233.25-782.9,1200.32z"/>
	<path class="st21" d="M-842.52,1080.69v60.02c32.92,0,59.61,26.69,59.61,59.61v-90.27
		C-803.48,1100.87-823.35,1091.09-842.52,1080.69L-842.52,1080.69z"/>
	<path class="st19" d="M-782.9,1110.05v-29.69c-9.47-4.76-19.48-8.36-29.81-10.73v-33.25h-29.81v44.31
		C-823.33,1091.06-803.46,1100.84-782.9,1110.05z"/>
	<path class="st23" d="M-782.9,1200.32c0,32.92-26.69,59.61-59.61,59.61h59.61V1200.32z"/>
</g>
<g>
	<path class="st24" d="M116.93,58h766.13C915.61,58,942,84.39,942,116.93V676.8c0,32.55-26.39,58.93-58.93,58.93H116.93
		C84.39,735.73,58,709.35,58,676.8V116.93C58,84.39,84.39,58,116.93,58z"/>
	<path class="st25" d="M116.93,116.93h766.13v500.93H116.93V116.93z"/>
	<path class="st26" d="M175.87,175.87h530.4v353.6h-530.4V175.87z"/>
	<path class="st27" d="M268.53,356.97l58.93-58.93l20.83,20.83l-58.93,58.93L268.53,356.97z"/>
	<path class="st27" d="M356.92,318.89l20.83-20.83L495.6,415.91l-20.83,20.83L356.92,318.89z"/>
	<path class="st24" d="M352.67,853.6h294.67c24.41,0,44.2,19.79,44.2,44.2V942l0,0H308.47l0,0v-44.2
		C308.47,873.39,328.26,853.6,352.67,853.6z"/>
	<path class="st28" d="M396.87,735.73h206.27V853.6H396.87V735.73z"/>
	<g>
		<path class="st6" d="M868.33,662.07h29.47v29.47h-29.47V662.07z"/>
		<path class="st6" d="M809.4,662.07h29.47v29.47H809.4V662.07z"/>
		<path class="st6" d="M735.73,366.55c0.22,22.56,13.14,43.08,33.39,53.04c24.72,12.57,40.29,37.95,40.28,65.68
			c0,40.68-32.98,73.67-73.67,73.67H676.8c-40.68,0-73.67-32.98-73.67-73.67c-0.01-27.73,15.56-53.11,40.28-65.68
			c20.25-9.96,33.16-30.48,33.39-53.04V264.27h58.93V366.55z"/>
		<path class="st6" d="M750.47,205.33h29.47v29.47h-29.47V205.33z"/>
		<path class="st6" d="M809.4,161.13h29.47v29.47H809.4V161.13z"/>
		<path class="st6" d="M794.67,264.27h29.47v29.47h-29.47V264.27z"/>
	</g>
	<path class="st29" d="M603.13,485.27c0,40.68,32.98,73.67,73.67,73.67h58.93c40.68-0.02,73.65-33.02,73.63-73.7
		c-0.01-10.13-2.1-20.15-6.15-29.43H609.32C605.24,465.09,603.14,475.12,603.13,485.27L603.13,485.27z"/>
	<circle class="st30" cx="264.27" cy="382.13" r="29.47"/>
	<circle class="st30" cx="352.67" cy="293.73" r="29.47"/>
	<circle class="st30" cx="500" cy="441.07" r="29.47"/>
	<path class="st28" d="M411.6,220.07h221v29.47h-221V220.07z"/>
	<path class="st28" d="M441.07,279H632.6v29.47H441.07V279z"/>
	<path class="st28" d="M470.53,337.93H632.6v29.47H470.53V337.93z"/>
</g>
</svg>
