<?xml version="1.0" encoding="utf-8"?>
<!-- Generator: Adobe Illustrator 24.0.3, SVG Export Plug-In . SVG Version: 6.00 Build 0)  -->
<svg version="1.1" id="Layer_1" xmlns="http://www.w3.org/2000/svg" xmlns:xlink="http://www.w3.org/1999/xlink" x="0px" y="0px"
	 viewBox="0 0 1000 1000" style="enable-background:new 0 0 1000 1000;" xml:space="preserve">
<style type="text/css">
	.st0{fill:#DEDEDE;}
	.st1{fill:#969696;}
	.st2{fill:#B5B5B5;}
	.st3{fill:#F2F2F2;}
	.st4{fill:#808080;}
	.st5{fill:#A3A3A3;}
	.st6{fill:#FFFFFF;}
	.st7{fill:#696969;}
	.st8{fill:#5ACAFA;}
	.st9{fill:#1C99EB;}
	.st10{fill:#00AAFF;}
	.st11{fill:#939393;}
	.st12{fill:none;}
	.st13{fill:#8E8D92;}
	.st14{fill:#007AFF;}
	.st15{fill:#454545;}
	.st16{fill:#177BBD;}
	.st17{fill:#1A8FDB;}
	.st18{fill:#333333;}
	.st19{fill:#706F73;}
	.st20{fill:#454547;}
	.st21{fill:#5C5B5E;}
	.st22{fill:#CFCFCF;}
	.st23{fill:#666569;}
	.st24{fill:#576574;}
	.st25{fill:#3E4B5A;}
	.st26{fill:#F2BB88;}
	.st27{fill:#E3A76F;}
	.st28{fill:#E4EAF8;}
	.st29{fill:#D8DCE5;}
	.st30{fill:#F2D1A5;}
	.st31{fill:#EE5253;}
	.st32{fill:#FF6B6B;}
	.st33{fill:#D83941;}
	.st34{fill:#15BA8B;}
	.st35{fill:#11AA7B;}
	.st36{fill:#3FEFBC;}
	.st37{fill:#1DD1A1;}
</style>
<g>
	<path class="st0" d="M-754.16,1665.58v29.81h-387.48v-29.81c0.05-16.44,13.37-29.76,29.81-29.81h327.87
		C-767.53,1635.82-754.21,1649.14-754.16,1665.58z"/>
	<path class="st1" d="M-798.87,1576.16l14.9,59.61h-327.87l14.9-59.61H-798.87z"/>
	<path class="st2" d="M-1335.39,1576.16c-32.92,0-59.61-26.69-59.61-59.61v-59.61h924v59.61c0,32.92-26.69,59.61-59.61,59.61
		H-1335.39z"/>
	<path class="st3" d="M-471,890.61v566.32h-924V890.61c0-32.92,26.69-59.61,59.61-59.61h804.77C-497.69,831-471,857.69-471,890.61z"
		/>
	<path class="st4" d="M-1020.59,1591.06h225.44l-3.73-14.9h-298.06l-14.9,59.61h33.58
		C-1071.47,1609.47-1047.75,1591.08-1020.59,1591.06L-1020.59,1591.06z"/>
	<path class="st2" d="M-1094.19,1635.77h-17.65c-16.44,0.05-29.76,13.37-29.81,29.81v29.81h387.48v-29.81h-298.06
		C-1071.12,1665.55-1087.94,1653.6-1094.19,1635.77z"/>
	<path class="st5" d="M-500.81,1456.94v59.61c0,16.46-13.34,29.81-29.81,29.81h-804.77c-16.46,0-29.81-13.34-29.81-29.81v-59.61
		H-1395v59.61c0,32.92,26.69,59.61,59.61,59.61h804.77c32.92,0,59.61-26.69,59.61-59.61v-59.61H-500.81z"/>
	<path class="st0" d="M-530.61,831h-804.77c-32.92,0-59.61,26.69-59.61,59.61v566.32h29.81V890.61c0-16.46,13.34-29.81,29.81-29.81
		h804.77c16.46,0,29.81,13.34,29.81,29.81v566.32H-471V890.61C-471,857.69-497.69,831-530.61,831z"/>
	<path class="st6" d="M-530.61,860.81h-774.97c0,296.57,359.94,536.52,804.77,536.52V890.61
		C-500.81,874.15-514.15,860.81-530.61,860.81z"/>
	<circle class="st4" cx="-1335.39" cy="1516.55" r="14.9"/>
	<path class="st7" d="M-1335.39,1516.55c-5.24-0.05-10.05-2.89-12.62-7.45c-1.42,2.23-2.21,4.81-2.28,7.45
		c0,8.23,6.67,14.9,14.9,14.9s14.9-6.67,14.9-14.9c-0.07-2.64-0.86-5.22-2.28-7.45
		C-1325.34,1513.65-1330.15,1516.49-1335.39,1516.55z"/>
	<path class="st5" d="M-1335.39,1531.45c-5.24-0.06-10.05-2.89-12.62-7.45c-1.42,2.23-2.21,4.81-2.28,7.45
		c0,8.23,6.67,14.9,14.9,14.9s14.9-6.67,14.9-14.9c-0.07-2.64-0.86-5.22-2.28-7.45C-1325.34,1528.56-1330.15,1531.4-1335.39,1531.45
		z"/>
	<path class="st4" d="M-1275.77,1501.65h59.61c8.23,0,14.9,6.67,14.9,14.9l0,0c0,8.23-6.67,14.9-14.9,14.9h-59.61
		c-8.23,0-14.9-6.67-14.9-14.9l0,0C-1290.68,1508.32-1284.01,1501.65-1275.77,1501.65z"/>
	<path class="st7" d="M-1216.16,1516.55h-59.61c-5.23-0.06-10.04-2.9-12.62-7.45c-1.42,2.23-2.21,4.81-2.28,7.45
		c0,8.23,6.67,14.9,14.9,14.9h59.61c8.23,0,14.9-6.67,14.9-14.9c-0.07-2.64-0.86-5.22-2.28-7.45
		C-1206.12,1513.65-1210.93,1516.49-1216.16,1516.55z"/>
	<path class="st5" d="M-1216.16,1531.45h-59.61c-5.23-0.06-10.04-2.9-12.62-7.45c-1.42,2.23-2.21,4.81-2.28,7.45
		c0,8.23,6.67,14.9,14.9,14.9h59.61c8.23,0,14.9-6.67,14.9-14.9c-0.07-2.64-0.86-5.22-2.28-7.45
		C-1206.12,1528.56-1210.93,1531.39-1216.16,1531.45z"/>
	<path class="st8" d="M-947.9,1665.58h417.29v29.81c0,32.92-26.69,59.61-59.61,59.61h-298.06c-32.92,0-59.61-26.69-59.61-59.61
		V1665.58z"/>
	<path class="st8" d="M-530.61,1099.26v14.9h-104.32c0,0,0,44.71-29.81,44.71h-149.03c-29.81,0-29.81-44.71-29.81-44.71H-947.9
		v-14.9c0-32.92,26.69-59.61,59.61-59.61h298.06C-557.3,1039.65-530.61,1066.33-530.61,1099.26z"/>
	<path class="st0" d="M-530.61,1114.16v551.42H-947.9v-551.42h104.32c0,0,0,44.71,29.81,44.71h149.03
		c29.81,0,29.81-44.71,29.81-44.71H-530.61z"/>
	<path class="st8" d="M-813.77,1158.87h149.03c29.81,0,29.81-44.71,29.81-44.71h-208.65
		C-843.58,1114.16-843.58,1158.87-813.77,1158.87z"/>
	<path class="st9" d="M-590.23,1725.19h-298.06c-32.92,0-59.61-26.69-59.61-59.61v29.81c0,32.92,26.69,59.61,59.61,59.61h298.06
		c32.92,0,59.61-26.69,59.61-59.61v-29.81C-530.61,1698.5-557.3,1725.19-590.23,1725.19z"/>
	<path class="st3" d="M-634.94,1114.16c0,0,0,44.71-29.81,44.71h-149.03c-29.81,0-29.81-44.71-29.81-44.71h-44.71
		c0,247.13,159.97,447.1,357.68,447.1v-447.1H-634.94z"/>
	<path class="st9" d="M-888.29,1069.45h298.06c27.13,0.04,50.79,18.43,57.51,44.71h2.1v-14.9c0-32.92-26.69-59.61-59.61-59.61
		h-298.06c-32.92,0-59.61,26.69-59.61,59.61v14.9h2.1C-939.08,1087.88-915.42,1069.49-888.29,1069.45z"/>
	<circle class="st10" cx="-739.26" cy="1397.32" r="149.03"/>
	<path class="st3" d="M-843.58,1412.23l74.52,74.52l134.13-134.13l-44.71-44.71l-89.42,89.42l-29.81-29.81L-843.58,1412.23z"/>
	<path class="st11" d="M-1007.52,1084.35v-59.61h-33.25c-3.35-14.71-9.18-28.75-17.23-41.51l23.53-23.53l-42.15-42.15l-23.53,23.53
		c-12.76-8.05-26.79-13.88-41.51-17.23v-33.25h-59.61v33.25c-14.71,3.35-28.75,9.18-41.51,17.23l-23.53-23.53l-42.15,42.15
		l23.53,23.53c-8.05,12.76-13.88,26.79-17.23,41.51h-33.25v59.61h33.25c3.35,14.71,9.18,28.75,17.23,41.51l-23.53,23.53l42.15,42.15
		l23.53-23.53c12.76,8.05,26.79,13.88,41.51,17.23v33.25h59.61v-33.25c14.71-3.35,28.75-9.18,41.51-17.23l23.53,23.53l42.15-42.15
		l-23.53-23.53c8.05-12.76,13.88-26.79,17.23-41.51H-1007.52z"/>
	<circle class="st6" cx="-1171.45" cy="1054.55" r="59.61"/>
	<path class="st7" d="M-1171.45,980.03c-41.15,0-74.52,33.36-74.52,74.52c0,41.15,33.36,74.52,74.52,74.52
		c41.15,0,74.52-33.36,74.52-74.52C-1096.94,1013.39-1130.3,980.03-1171.45,980.03z M-1171.45,1114.16
		c-32.92,0-59.61-26.69-59.61-59.61c0-32.92,26.69-59.61,59.61-59.61c32.92,0,59.61,26.69,59.61,59.61
		C-1111.84,1087.47-1138.53,1114.16-1171.45,1114.16z"/>
	<path class="st2" d="M-1007.52,1084.35v-59.61h-33.25c-3.35-14.71-9.18-28.75-17.23-41.51l23.53-23.53l-42.15-42.15l-23.53,23.53
		c-12.76-8.05-26.79-13.88-41.51-17.23v-33.25h-59.61v33.25c-14.71,3.35-28.75,9.18-41.51,17.23l-23.53-23.53l-42.15,42.15
		l23.53,23.53c-8.05,12.76-13.88,26.79-17.23,41.51h-33.25v59.61h33.25c3.35,14.71,9.18,28.75,17.23,41.51l-23.53,23.53l42.15,42.15
		l23.53-23.53c12.76,8.05,26.79,13.88,41.51,17.23v33.25h59.61v-33.25c14.71-3.35,28.75-9.18,41.51-17.23l23.53,23.53l42.15-42.15
		l-23.53-23.53c8.05-12.76,13.88-26.79,17.23-41.51H-1007.52z M-1059.36,1132.15l-34.49,34.49l-19.26-19.25
		c-10.44,6.59-21.93,11.35-33.96,14.1v27.2h-48.76v-27.2c-12.04-2.75-23.52-7.51-33.96-14.1l-19.26,19.25l-34.49-34.49l19.26-19.26
		c-6.59-10.44-11.35-21.93-14.1-33.96h-27.2v-48.76h27.2c2.75-12.04,7.51-23.52,14.1-33.96l-19.26-19.25l34.49-34.49l19.26,19.25
		c10.44-6.59,21.93-11.35,33.96-14.1v-27.2h48.76v27.2c12.04,2.75,23.52,7.51,33.96,14.1l19.26-19.25l34.49,34.49l-19.25,19.25
		c6.59,10.44,11.35,21.93,14.1,33.96h27.2v48.76h-27.2c-2.75,12.04-7.51,23.52-14.1,33.96L-1059.36,1132.15z"/>
	<circle class="st12" cx="-1007.52" cy="1397.32" r="59.61"/>
	<path class="st13" d="M-1067.13,1397.32c0-32.92,26.69-59.61,59.61-59.61c32.92,0,59.61,26.69,59.61,59.61v-119.96
		c-9.47-4.76-19.48-8.36-29.81-10.73v-33.25h-59.61v33.25c-14.71,3.35-28.75,9.18-41.51,17.23l-23.53-23.53l-42.15,42.15
		l23.53,23.53c-8.05,12.76-13.88,26.79-17.23,41.51h-33.25v59.61h33.25c2.37,10.33,5.97,20.34,10.73,29.81h119.96
		C-1040.44,1456.94-1067.13,1430.25-1067.13,1397.32L-1067.13,1397.32z"/>
	<path class="st13" d="M-1007.52,1456.94h59.61v-59.61C-947.9,1430.25-974.59,1456.94-1007.52,1456.94z"/>
	<path class="st11" d="M-769.06,875.71h163.94c8.23,0,14.9,6.67,14.9,14.9l0,0c0,8.23-6.67,14.9-14.9,14.9h-163.94
		c-8.23,0-14.9-6.67-14.9-14.9l0,0C-783.97,882.38-777.3,875.71-769.06,875.71z"/>
	<path class="st11" d="M-560.42,875.71h14.9c8.23,0,14.9,6.67,14.9,14.9l0,0c0,8.23-6.67,14.9-14.9,14.9h-14.9
		c-8.23,0-14.9-6.67-14.9-14.9l0,0C-575.32,882.38-568.65,875.71-560.42,875.71z"/>
	<path class="st14" d="M-733.85,1451.53l-35.22,35.22l-74.52-74.52l23.85-23.77c-19.01-29.12-27.01-64.06-22.58-98.56
		c-59.38,56.94-61.36,151.23-4.43,210.61c56.94,59.38,151.23,61.36,210.61,4.43c24.83-23.8,40.65-55.47,44.78-89.61
		c-37.69,36.49-91.89,50.26-142.43,36.2H-733.85z"/>
	<path class="st0" d="M-769.06,1486.74l35.22-35.22c-35.42-9.73-66-32.19-85.89-63.07l-23.85,23.77L-769.06,1486.74z"/>
	<path class="st15" d="M-783.97,1695.39h89.42c8.23,0,14.9,6.67,14.9,14.9l0,0c0,8.23-6.67,14.9-14.9,14.9h-89.42
		c-8.23,0-14.9-6.67-14.9-14.9l0,0C-798.87,1702.06-792.2,1695.39-783.97,1695.39z"/>
	<path class="st16" d="M-694.55,1725.19h-89.42c-5.23-0.06-10.04-2.9-12.62-7.45c-1.42,2.23-2.21,4.81-2.28,7.45
		c0,8.23,6.67,14.9,14.9,14.9h89.42c8.23,0,14.9-6.67,14.9-14.9c-0.07-2.64-0.86-5.22-2.28-7.45
		C-684.51,1722.3-689.31,1725.14-694.55,1725.19z"/>
	<path class="st15" d="M-783.97,1084.35h89.42c8.23,0,14.9,6.67,14.9,14.9l0,0c0,8.23-6.67,14.9-14.9,14.9h-89.42
		c-8.23,0-14.9-6.67-14.9-14.9l0,0C-798.87,1091.03-792.2,1084.35-783.97,1084.35z"/>
	<path class="st17" d="M-694.55,1114.16h-89.42c-5.23-0.06-10.04-2.9-12.62-7.45c-1.42,2.23-2.21,4.81-2.28,7.45
		c0,8.23,6.67,14.9,14.9,14.9h89.42c8.23,0,14.9-6.67,14.9-14.9c-0.07-2.64-0.86-5.22-2.28-7.45
		C-684.51,1111.26-689.31,1114.1-694.55,1114.16z"/>
	<path class="st18" d="M-694.55,1099.26h-89.42c-5.23-0.06-10.04-2.9-12.62-7.45c-1.42,2.23-2.21,4.81-2.28,7.45
		c0,8.23,6.67,14.9,14.9,14.9h89.42c8.23,0,14.9-6.67,14.9-14.9c-0.07-2.64-0.86-5.22-2.28-7.45
		C-684.51,1096.36-689.31,1099.2-694.55,1099.26z"/>
	<path class="st18" d="M-694.55,1710.29h-89.42c-5.23-0.06-10.04-2.9-12.62-7.45c-1.42,2.23-2.21,4.81-2.28,7.45
		c0,8.23,6.67,14.9,14.9,14.9h89.42c8.23,0,14.9-6.67,14.9-14.9c-0.07-2.64-0.86-5.22-2.28-7.45
		C-684.51,1707.39-689.31,1710.23-694.55,1710.29z"/>
	<path class="st2" d="M-1007.52,1635.77h59.61v29.81h-59.61V1635.77z"/>
	<path class="st19" d="M-1007.52,1591.06h59.61v44.71h-59.61V1591.06z"/>
	<path class="st19" d="M-1007.52,1456.94h59.61v89.42h-59.61V1456.94z"/>
	<path class="st20" d="M-1007.52,1576.16h59.61v14.9h-59.61V1576.16z"/>
	<path class="st4" d="M-1007.52,1665.58h59.61v29.81h-59.61V1665.58z"/>
	<path class="st21" d="M-1007.52,1546.35h59.61v29.81h-59.61V1546.35z"/>
	<path class="st3" d="M-977.71,1266.64c10.33,2.37,20.34,5.97,29.81,10.73v-178.11c0.06-10.49,2.91-20.78,8.26-29.81h-8.26
		c-32.92,0-59.61,26.69-59.61,59.61v104.32h29.81V1266.64z"/>
	<path class="st22" d="M-947.9,1397.32c0-32.92-26.69-59.61-59.61-59.61v119.23C-974.59,1456.94-947.9,1430.25-947.9,1397.32z"/>
	<path class="st21" d="M-1007.52,1277.69v60.02c32.92,0,59.61,26.69,59.61,59.61v-90.27
		C-968.48,1297.87-988.35,1288.09-1007.52,1277.69L-1007.52,1277.69z"/>
	<path class="st19" d="M-947.9,1307.05v-29.69c-9.47-4.76-19.48-8.36-29.81-10.73v-33.25h-29.81v44.31
		C-988.33,1288.06-968.46,1297.84-947.9,1307.05z"/>
	<path class="st23" d="M-947.9,1397.32c0,32.92-26.69,59.61-59.61,59.61h59.61V1397.32z"/>
</g>
<g>
	<path class="st24" d="M423.55,27c-104.9,0-189.92,85.03-189.92,189.92v75.16c12.69-11.77,30.75-18.16,48.38-15.81v-9.46
		c0-7.52,6.42-13.47,13.87-12.9c73.43,5.28,148.16-18.06,204.66-54.97c5.28-3.45,12.26-2.59,16.55,2.02
		c48.31,51.92,48.02,49.92,48.02,56.69v18.58c19.32-2.9,36.46,3.07,48.37,14.15v-73.46C613.47,112.03,528.45,27,423.55,27z"/>
	<path class="st25" d="M271.7,216.92c0-98.47,74.93-179.43,170.89-188.98c-6.26-0.62-12.61-0.95-19.03-0.95
		c-104.9,0-189.92,85.03-189.92,189.92v75.16c10.22-9.47,23.92-15.46,38.07-16.2V216.92z"/>
	<g>
		<path class="st26" d="M562.59,268.69v104.04c0,1.13-0.06,2.24-0.09,3.36c36.82,5.57,65.65-21.03,65.65-53.7
			C628.16,289.66,599.29,263.19,562.59,268.69z"/>
		<path class="st26" d="M284.52,372.73v-104c-32.05-4.28-65.57,20.32-65.57,53.67c0,32.63,28.77,59.28,65.65,53.7
			C284.58,374.97,284.52,373.85,284.52,372.73z"/>
	</g>
	<g>
		<path class="st27" d="M600.66,275.31c-10.68-6.04-23.77-8.77-38.07-6.62v104.04c0,1.13-0.06,2.24-0.09,3.36
			c14.35,2.17,27.47-0.56,38.16-6.61L600.66,275.31L600.66,275.31z"/>
		<path class="st27" d="M284.52,369.49c-16.75-9.49-27.5-27.17-27.5-47.09c0-19.54,11.52-36.07,27.5-45.55v-8.11
			c-32.05-4.28-65.57,20.32-65.57,53.67c0,32.63,28.77,59.28,65.65,53.7c-0.03-1.12-0.08-2.24-0.08-3.36L284.52,369.49
			L284.52,369.49z"/>
	</g>
	<path class="st26" d="M425.57,509.74c-30.68,0-57.65-8.42-79.7-22.52v74.54l79.36,97.96l79.36-97.96v-76.64
		C482.11,500.63,454.89,509.74,425.57,509.74z"/>
	<path class="st27" d="M383.94,504.16c-13.89-3.87-26.65-9.64-38.07-16.94v74.54l38.07,46.99V504.16z"/>
	<path class="st28" d="M714.54,638.04l-209.95-81.31l-79.36,97.96l-79.36-97.96l-209.73,81.31c0,0-77.65,31.92-77.65,120.44v196.46
		c0,9.98,8.09,18.06,18.06,18.06h697.72c9.89,0,17.91-8.02,17.91-17.91V758.48C792.19,669.96,714.54,638.04,714.54,638.04z"/>
	<path class="st29" d="M96.57,954.94V739.45c0-57.63,32.91-91.27,55.88-107.73l-16.3,6.32c0,0-77.65,31.92-77.65,120.44v196.46
		c0,9.98,8.09,18.06,18.06,18.06h38.07C104.65,973,96.57,964.91,96.57,954.94z"/>
	<path class="st30" d="M517.09,195.93c-4.29-4.61-11.27-5.46-16.55-2.02c-56.5,36.91-131.23,60.24-204.66,54.97
		c-7.45-0.56-13.87,5.38-13.87,12.9v113.46c0,72.92,57.14,139.53,143.57,139.53c76.94,0,139.53-62.59,139.53-139.53V252.62
		C565.1,245.84,565.4,247.85,517.09,195.93z"/>
	<path class="st26" d="M320.08,375.24V249.58c-8.07,0.09-16.14-0.12-24.2-0.7c-7.45-0.57-13.87,5.38-13.87,12.9v113.46
		c0,72.92,57.14,139.53,143.57,139.53c5.76,0,11.43-0.39,17.02-1.08C373.66,505.27,320.08,446.41,320.08,375.24z"/>
	<g>
		<path class="st29" d="M521.06,705.02l59.34-118.94l-75.81-29.36l-79.36,97.96l77.37,54.95
			C508.87,714.09,517.62,711.9,521.06,705.02z"/>
		<path class="st29" d="M329.52,705.02l-59.34-118.94l75.81-29.36l79.36,97.96l-77.37,54.95
			C341.71,714.09,332.95,711.9,329.52,705.02z"/>
	</g>
	<path class="st31" d="M425.34,654.76v-0.07l-0.05,0.03l-0.05-0.03v0.07l-56.28,39.97l26.6,40.03c21.46,0,37.99,0,59.45,0
		l26.6-40.03L425.34,654.76z"/>
	<path class="st32" d="M355.24,973h140.09l-40.32-238.24c-21.46,0-37.99,0-59.45,0L355.24,973z"/>
	<path class="st33" d="M444.32,668.24l-18.99-13.48v-0.07l-0.05,0.03l-0.05-0.03v0.07l-56.28,39.97l26.6,40.03
		c10.03,0,16.28,0,38.07,0l-20.71-31.17c-3.28-4.94-2.05-11.59,2.79-15.03L444.32,668.24z"/>
	<path class="st31" d="M395.56,734.76L355.24,973h38.07l40.32-238.24C411.84,734.76,405.62,734.76,395.56,734.76z"/>
	<g>
		<path class="st29" d="M205.04,973V788.91c0-7.88-6.39-14.28-14.28-14.28c-7.89,0-14.28,6.39-14.28,14.28V973H205.04z"/>
		<path class="st29" d="M674.42,973V846c0-7.88-6.39-14.28-14.28-14.28c-7.88,0-14.28,6.39-14.28,14.28v127H674.42z"/>
	</g>
	<path class="st34" d="M757.24,896.22c-101.6,0-184.26-82.66-184.26-184.26s82.66-184.26,184.26-184.26s184.26,82.66,184.26,184.26
		S858.85,896.22,757.24,896.22z"/>
	<path class="st35" d="M611.05,711.95c0-95.18,72.54-173.73,165.23-183.29c-109.27-11.27-203.3,74.81-203.3,183.29
		c0,101.6,82.66,184.26,184.26,184.26c6.43,0,12.78-0.33,19.03-0.98C683.58,885.68,611.05,807.13,611.05,711.95z"/>
	<path class="st36" d="M757.24,577.91c-73.91,0-134.05,60.13-134.05,134.05S683.33,846,757.24,846s134.05-60.13,134.05-134.05
		S831.16,577.91,757.24,577.91z"/>
	<path class="st37" d="M661.27,711.95c0-67.45,50.08-123.4,115.01-132.67c-81.3-11.62-153.08,51.76-153.08,132.67
		c0,73.91,60.13,134.05,134.05,134.05c6.46,0,12.81-0.49,19.03-1.37C711.35,835.35,661.27,779.4,661.27,711.95z"/>
	<path class="st28" d="M738.48,754.37L705,721.56c-5.63-5.52-5.72-14.56-0.2-20.19c5.52-5.63,14.56-5.72,20.19-0.2l23.51,23.05
		l56.13-54.71c5.64-5.5,14.68-5.39,20.19,0.26c5.5,5.65,5.39,14.69-0.26,20.19l-66.12,64.45
		C752.88,759.81,744.02,759.81,738.48,754.37z"/>
</g>
</svg>
