<?xml version="1.0" encoding="utf-8"?>
<!-- Generator: Adobe Illustrator 24.0.3, SVG Export Plug-In . SVG Version: 6.00 Build 0)  -->
<svg version="1.1" id="Layer_1" xmlns="http://www.w3.org/2000/svg" xmlns:xlink="http://www.w3.org/1999/xlink" x="0px" y="0px"
	 viewBox="0 0 1000 1000" style="enable-background:new 0 0 1000 1000;" xml:space="preserve">
<style type="text/css">
	.st0{fill:#FD9B05;}
	.st1{fill:#2B3543;}
	.st2{fill:#ED0101;}
	.st3{fill:#020000;}
	.st4{fill:#3772A3;}
	.st5{fill:#FED344;}
</style>
<g>
	<path class="st0" d="M1452,1152.26c8.37-3.49,15.25,0.12,22.41,4.1c163.27,90.93,338.38,129.98,524.65,117.88
		c98.53-6.4,193.52-29.4,285.08-66.44c5.13-2.07,10.25-4.55,15.62-5.54c6.56-1.21,12.21,1.46,15.26,7.78
		c2.78,5.76,1.13,11.1-3.46,15.01c-5.61,4.78-11.56,9.24-17.72,13.31c-90.39,59.82-190.74,91.95-297.71,102.39
		c-206.84,20.18-388.06-40.64-544.13-177.38C1452,1159.66,1452,1155.96,1452,1152.26z"/>
	<path class="st0" d="M2400,1192.99c-6.75,4.15-5.62,11.73-7.5,17.87c-10.24,33.45-24.94,64.29-51.04,88.52
		c-3.84,3.56-8.15,9.37-14.14,5.69c-6.66-4.09-1.8-10.06,0.07-14.8c10.82-27.51,21.66-55.03,27.03-84.25
		c4.75-25.81-1.28-33.61-27.64-36.17c-28.39-2.75-56.58,0.21-84.77,3.43c-6.18,0.7-15.15,5.13-18.27-2.87
		c-3.07-7.86,5.74-11.47,11.37-14.4c53.27-27.75,108.12-34.23,164.9-11.15C2400,1160.9,2400,1176.94,2400,1192.99z"/>
	<path class="st1" d="M1938.3,849.25c-12.22,50.98-23.37,97.58-34.58,144.17c-4.61,19.16-9.61,38.23-13.93,57.45
		c-2.44,10.86-8.81,15.6-19.61,15.41c-8.01-0.14-16.04-0.23-24.05,0.02c-10.9,0.34-17.17-4.97-20.25-15.13
		c-25.19-83.07-50.43-166.13-75.73-249.16c-3.47-11.4,0.54-16.45,12.32-15.85c4.31,0.22,8.7,0.53,12.94-0.05
		c19.38-2.64,28.55,5.19,33.17,24.83c15.08,64.11,32.09,127.77,48.41,191.84c6.53-1.66,5.17-7.39,6.17-11.57
		c14.58-61.1,29.81-122.06,43.1-183.44c4.25-19.61,15.21-22.19,31.75-21.84c16.12,0.34,29.39-0.36,34.07,21.16
		c14.52,66.74,31.1,133.04,48.18,205.01c13.84-53.24,26.33-101.21,38.78-149.18c5.1-19.67,9.84-39.44,15.25-59.02
		c4.17-15.1,40.76-25.82,52.83-15.74c5.32,4.45,3.38,10.39,1.81,15.45c-25.7,82.91-51.61,165.75-77.47,248.61
		c-3.19,10.23-10.19,14.88-20.86,14.39c-4.92-0.22-9.94-0.58-14.78,0.08c-18.1,2.47-26.56-5.21-30.56-23.17
		c-12.87-57.7-27.19-115.07-41-172.55C1942.88,865.2,1941.14,859.53,1938.3,849.25z"/>
	<path class="st1" d="M1669.38,1031.64c-29.09,31.11-64.11,45.97-106.26,40.62c-37-4.7-62.13-26.56-69.62-59.31
		c-8.8-38.47,4.16-73.83,34.99-94.25c28.37-18.79,60.13-20.06,92.58-16.99c6.74,0.64,13.44,1.79,20.13,2.87
		c26.45,4.27,26.45,4.29,25.46-23.54c-1.44-40.36-17.92-56.83-57.89-58.68c-25.79-1.19-49.94,5.1-73.99,13.49
		c-7.39,2.58-16.78,12.78-23.9,0.33c-6.33-11.05-0.04-32.23,10.51-37.28c34.66-16.63,71.32-23.75,109.55-19.05
		c59.92,7.37,86.62,37.69,87.57,98.42c0.44,28.35,0.32,56.71,0.04,85.07c-0.24,24.22,0.78,47.95,13.31,69.83
		c8.38,14.64-4.67,19.29-13.4,25.34c-8.99,6.24-18.52,15.15-28.76,2.51C1682.42,1052.06,1676.49,1042.04,1669.38,1031.64z
		 M1667.22,960.65c-3.39-3.79,5.56-14.05-6.34-16.49c-29.13-5.96-58.48-11.12-87.44,0.07c-19.58,7.56-28.21,24.29-26.63,47.84
		c1.24,18.37,9.17,32.07,27.42,37.53C1620.62,1043.47,1665.93,1010.63,1667.22,960.65z"/>
	<path class="st1" d="M2254.46,1074.69c-32.13-0.37-56.68-5.39-80.68-14.08c-15.49-5.6-22.07-15.32-21.43-32.15
		c0.59-15.57,6.68-18.49,19.61-12.61c28.15,12.8,57.69,17.14,88.38,14.81c9.32-0.71,18.21-2.75,26.65-6.88
		c13.33-6.53,20.87-16.66,21.15-31.94c0.28-14.84-7.11-25.19-19.89-30.49c-17.58-7.29-35.91-12.76-53.91-19.05
		c-9.87-3.45-20.02-6.27-29.51-10.57c-30.11-13.65-47.79-36.85-48.59-70.32c-0.82-34.11,17.95-57.45,47.26-71.16
		c42.34-19.79,85.36-14.78,127.27,2.69c13.13,5.47,19.07,24.95,13.47,38.04c-4.2,9.82-11.2,5.27-16.99,2.69
		c-24.88-11.09-50.83-14.44-77.71-11.67c-24.86,2.56-38.04,12.57-40.68,30.5c-2.63,17.82,6.74,30.82,31.02,40.03
		c18.98,7.19,38.6,12.69,57.87,19.11c43.47,14.49,63.56,38.92,62.87,76.23c-0.71,37.93-24.71,67.12-65.42,79.75
		C2279.77,1072.4,2264.06,1075.03,2254.46,1074.69z"/>
</g>
<g>
	<path class="st2" d="M-1042.08,670.87c16.04-47,31.44-94.23,48.4-140.9c8.73-24.03,24.31-43.13,49.71-52.02c3.18,0,6.36,0,9.54,0
		c19.13,7.43,38.75,13.82,57.28,22.55c26.08,12.28,45.44,2.54,63.19-15.9c2.18-2.26,4.46-4.43,6.69-6.64c20.13,0,40.27,0,60.4,0
		c39.13,14.7,78.93,27.71,116.7,45.79c19.81,9.49,39.5,19.28,57.38,32.34c16.53,12.08,25.86,28.05,30.35,47.94
		c11.54,51.21,23.88,102.24,35.82,153.36c0.95,4.08,1.26,8.31,1.87,12.47c-1,12.56-0.7,25.06-7.39,36.84
		c-15.66,27.54-42.11,37.65-70.35,43.43c-38.02,7.77-76.43,7.21-115.2,3.49c-108.22-10.37-205.81-47.37-291.52-114.16
		C-1012.28,721.47-1035.83,702.45-1042.08,670.87z"/>
	<path class="st3" d="M-1182.39,1368.06c-0.12-46.57-0.09-93.13-0.52-139.7c-0.07-7.43,1.73-10.08,9.58-9.9
		c22.22,0.52,44.48-0.48,66.67,0.34c37.52,1.38,58.82,30.12,48.54,64.26c-2.52,8.39-6.58,15.63-14.68,19.55
		c-9.82,4.74-8.79,9.97-3.62,18.47c9.15,15.04,18.7,30.05,24.37,46.98c-13.78,0-27.55,0-41.33,0c-4.87-17.55-15.34-32.5-23.1-48.69
		c-5.23-10.92-17.08-4.78-25.74-4.86c-8.18-0.07-4.26,8.09-4.49,12.52c-0.68,13.65-0.54,27.35-0.72,41.02
		C-1159.08,1368.06-1170.73,1368.06-1182.39,1368.06z M-1128.74,1285.03c8.4,0,14.21,0.18,20-0.1c2-0.1,4.04-1.17,5.91-2.11
		c12.58-6.34,14.47-19.88,3.98-28.11c-4.1-3.21-40.98-5.98-45.02-3.19c-1.17,0.81-2.53,2.4-2.54,3.64
		c-0.06,9.41-2.09,19.73,1.13,27.94C-1143,1288.95-1132.73,1284.16-1128.74,1285.03z"/>
	<path class="st3" d="M-753.23,1368.06c-0.08-45.96,0.23-91.92-0.52-137.87c-0.17-10.51,3.5-12.79,12.6-11.63
		c4.16,0.53,8.52,0.62,12.65-0.01c10.23-1.57,12.62,3,12.03,12.42c-0.76,12.1,0.12,24.3-0.3,36.44c-0.23,6.74,1.89,9.34,8.9,9.13
		c14.25-0.43,28.53-0.43,42.78,0c7.01,0.21,9.12-2.38,8.9-9.12c-0.41-12.67,0.3-25.37-0.26-38.03c-0.35-7.97,1.71-12.16,10.39-10.75
		c1.03,0.17,2.11,0.03,3.17,0.02c23.4-0.25,23.42-0.25,23.39,22.63c-0.06,42.26-0.15,84.52-0.22,126.78c-11.66,0-23.31,0-34.97,0
		c-0.53-3.58-1.13-7.16-1.58-10.75c-1.93-15.26,7.47-36.34-4.37-44.42c-10.87-7.41-30.62-1.42-46.43-2.11
		c-7.99-0.35-9.63,2.79-9.79,10.08c-0.35,15.73,2.15,31.57-1.41,47.2C-729.91,1368.06-741.57,1368.06-753.23,1368.06z"/>
	<path class="st3" d="M-889.92,1368.06c0.88-4.13-2.94-3.5-4.83-4.51c-28.56-15.2-38.99-46.17-25.78-76.88
		c10.39-24.16,44.41-38.93,70.48-29c10.91,4.16,10.91,0.38,11.02-8.2c0.4-29.88,0.62-29.87,34.94-36.71c0,52.01,0,103.65,0,155.29
		C-832.7,1368.06-861.31,1368.06-889.92,1368.06z M-839.17,1312.26c0-23.74-2.84-27.12-22.89-27.26
		c-17.13-0.12-30.73,11.94-30.44,26.97c0.31,15.84,13.04,27.45,30.11,27.48C-841.87,1339.47-839.17,1336.31-839.17,1312.26z"/>
	<path class="st3" d="M-587.92,1368.06c-27.82-22.1-29.21-46.97-2.83-61.16c11.83-6.36,25.39-5.06,38.55-5.46
		c4.71-0.15,13.27,9.35,14.75-2.56c1.18-9.49-6.25-13.54-14.99-14.8c-10.69-1.55-20.85,1.07-30.76,4.34
		c-15.99,5.28-13.84-9.53-18.12-16.42c-5.86-9.45,3.76-8.01,8.29-9.8c14.83-5.87,29.94-9.62,46.18-8.78
		c26.85,1.39,44.27,18.26,44.68,44.93c0.35,23.23,0.07,46.48,0.07,69.72C-530.7,1368.06-559.31,1368.06-587.92,1368.06z
		 M-556.56,1345.93c5.72-1.19,16.03,1.12,16.26-11.57c0.26-13.81-11.26-10.06-18.18-10.37c-7.72-0.35-19.1-0.27-19.05,10.74
		C-577.49,1345.28-567.54,1346.49-556.56,1345.93z"/>
	<path class="st3" d="M-1013.9,1368.06c-15.58-10.22-30.73-19.98-35.76-40.47c-6.14-25.01,0.17-46.08,19.71-60.59
		c20.13-14.94,37.21-20.19,64.77-5.46c17.85,9.54,29.46,33.68,28.21,54.88c-0.49,8.28-4.73,7.74-10.2,7.69
		c-11.12-0.11-22.25-0.03-33.37-0.03c-10.59,0-21.18,0-31.86,0c3.91,15.06,21.86,21.41,39.04,14.15
		c7.51-3.17,26.33,6.72,27.07,14.34c0.37,3.76-3.34,4.86-5.29,7.03c-3.92,4.36-11.14,3.22-14.64,8.46
		C-982.11,1368.06-998.01,1368.06-1013.9,1368.06z M-972.58,1299.71c-7.96-17.17-24.88-21.8-36.86-11.51
		c-2.82,2.42-5.73,5.4-4.42,9.27c1.3,3.86,5.39,2.11,8.25,2.16C-995.18,1299.82-984.75,1299.71-972.58,1299.71z"/>
	<path class="st3" d="M-451.22,1368.06c-16.76-9.58-23.26-24.19-21.84-43.14c0.63-8.42-0.56-17,0.28-25.39
		c1.05-10.5-1.45-15.88-13.34-14.16c-11.17,1.62-8.38-7.48-7.72-12.79c0.73-5.89-5.89-16.57,7.71-16.22
		c8.16,0.21,15.27,0.25,13.19-11.15c-2.49-13.65,2.69-20.52,17.05-20.96c5.55-0.17,11.02-2.93,17.21-4.7
		c0.27,4.32,0.65,7.96,0.7,11.6c0.32,23.39,0.27,24.09,23.21,24.84c13.97,0.46,7.63,10.03,8.11,15.78
		c0.46,5.57,4.3,13.74-8.21,14.04c-23.1,0.56-23.09,1.33-23.08,24.79c0,4.76-0.01,9.53,0.02,14.29
		c0.07,10.46,5.32,16.62,15.74,14.68c14.13-2.62,17.67,3.17,15.7,15.82c-0.64,4.13-0.17,8.43-0.2,12.65
		C-421.55,1368.06-436.39,1368.06-451.22,1368.06z"/>
	<path class="st2" d="M-495.83,802.64c41.99,19.17,79.38,44.05,109.43,80.13c48.91,58.72,41.75,148-16.81,196.94
		c-38.16,31.89-83.24,45.06-131.2,53.11c-74.79,12.54-148.5,4.66-222.1-8.32c-83.17-14.66-162.86-40.92-238.92-77.16
		c-70.37-33.54-137.48-72.77-190.9-131.17c-23.97-26.2-43.52-55.07-48.76-91.71c-5.56-38.98,14.49-76.36,50.74-93.02
		c40.05-18.42,82.56-24.04,126.04-24.92c-4.24,19.65-8.19,39.12,0.03,58.95c7.85,18.93,19.69,35.24,33.94,49.24
		c57.84,56.82,129.21,89.41,205.63,112.67c43.76,13.33,88.77,18.41,134.12,22.05c48.65,3.9,96.25-0.58,140.5-21.73
		c39.8-19.02,61.98-49.96,52.96-97.09C-492.9,821.33-494.27,811.96-495.83,802.64z"/>
	<path class="st3" d="M-495.83,802.64c1.56,9.33,2.93,18.69,4.71,27.97c9.02,47.13-13.16,78.07-52.96,97.09
		c-44.25,21.15-91.85,25.63-140.5,21.73c-45.35-3.64-90.36-8.72-134.12-22.05c-76.41-23.27-147.79-55.85-205.63-112.67
		c-14.25-14-26.1-30.31-33.94-49.24c-8.22-19.83-4.27-39.31-0.03-58.95c5.41-11.88,10.82-23.75,16.23-35.64
		c6.25,31.58,29.8,50.6,52.86,68.57c85.72,66.79,183.3,103.79,291.52,114.16c38.77,3.72,77.18,4.28,115.2-3.49
		c28.24-5.77,54.7-15.89,70.35-43.43c6.7-11.78,6.39-24.28,7.39-36.84C-501.77,780.77-498.8,791.71-495.83,802.64z"/>
</g>
<g>
	<path class="st4" d="M344.65,289.46c50.54,0,101.09-0.08,151.63,0.13c5.29,0.02,6.57-1.76,6.31-6.53
		c-0.31-5.49-0.36-11.04,0.03-16.52c0.4-5.56-1.38-7.51-7.25-7.48c-40.96,0.24-81.93,0.11-122.89,0.12
		c-25.63,0.01-51.27-0.1-76.9,0.21c-5.57,0.07-6.74-1.83-6.72-7.03c0.12-32.1-0.35-64.2-0.12-96.3
		c0.15-21.19,10.94-37.35,26.6-50.42c23.9-19.93,52.62-28.98,82.47-34.89c39.19-7.76,78.89-9.55,118.72-8.36
		c34.48,1.03,68.71,4.37,102.01,14.11c17.07,5,33.51,11.56,48.48,21.35c17.01,11.13,30.34,25.94,39.66,43.78
		c4.86,9.31,7.25,20.12,7.28,30.82c0.17,67.07,0.46,134.15-0.11,201.22c-0.58,68.16-42.55,105.39-106.99,112.26
		c-30.5,3.26-61.27,0.86-91.92,1.06c-45.51,0.29-91.03-0.01-136.54,0.09c-13.68,0.03-26.94,2.9-40.24,6.02
		c-18.3,4.29-32.79,14.44-45.53,27.54c-14.13,14.52-21.74,32.5-27.08,51.77c-4.21,15.21-5.17,30.66-5.2,46.26
		c-0.06,30.18-0.09,60.37,0.22,90.55c0.06,5.66-1.6,7.34-7.21,7.27c-23.23-0.27-46.5,0.61-69.7-0.31
		c-29.55-1.17-52.99-14.78-72.52-36.94C76.91,640.4,68.1,592.8,63.25,543.92c-3.58-36.08-2.99-72.28,2.51-108.22
		c5.26-34.42,14.69-67.44,35.99-95.84c25.65-34.2,59.9-50.83,102.77-50.49C251.23,289.75,297.94,289.46,344.65,289.46z
		 M380.99,129.6c-21.69-0.1-38.88,16.79-38.78,38.52c0.09,19.85,15.21,38.35,38.32,38.36c21.09,0.01,38.9-17.17,38.57-38.07
		C418.75,146.64,403.95,130.03,380.99,129.6z"/>
	<path class="st5" d="M659.93,710.41c-50.78,0-101.55,0.08-152.33-0.12c-5.54-0.02-7.86,1.34-7.4,7.16
		c0.43,5.47,0.42,11.04-0.01,16.51c-0.43,5.51,1.69,6.85,6.99,6.81c35.45-0.23,70.89-0.13,106.34-0.14
		c31.14-0.01,62.27,0.1,93.41-0.18c5.65-0.05,7.24,1.5,7.21,7.23c-0.19,32.09,0.26,64.19,0.1,96.28
		c-0.1,21.52-11.13,37.87-27.01,50.89c-25.18,20.64-55.41,29.73-86.8,35.41c-46.46,8.41-93.29,8.97-140.27,6.04
		c-18.41-1.15-36.7-3.29-54.63-7.5c-31.7-7.45-62.48-17.25-87.17-39.99c-20.07-18.48-29.91-41.02-29.61-68.8
		c0.68-62.98,0.16-125.98,0.34-188.97c0.07-22.99,3.28-45.4,15.66-65.47c17.37-28.18,44.05-42.3,75.33-49.18
		c10.3-2.27,20.78-3.13,31.37-3.12c69.7,0.09,139.4,0.12,209.09,0c20.54-0.04,40.5-3.35,59.21-12.4
		c31.07-15.03,48.22-41.01,57.26-73.2c4.22-15.04,5.84-30.45,5.72-46.12c-0.24-30.18,0.07-60.36-0.23-90.53
		c-0.06-6.03,1.78-7.71,7.71-7.61c19.87,0.34,39.76,0.42,59.64,0.04c37.26-0.71,65.86,15.67,88.13,44.34
		c10.14,13.06,17,27.79,23.25,43.28c8.69,21.55,13.92,43.69,16.35,66.39c1.82,17.06,0.74,34.43,0.81,51.67
		c0.09,21.08,1.47,42.27-0.26,63.21c-3.84,46.54-16.95,89.94-51.08,124.08c-22.07,22.08-49.19,33.81-80.55,34.04
		c-48.86,0.37-97.72,0.1-146.58,0.1C659.93,710.51,659.93,710.46,659.93,710.41z M583.72,831.3c-2.76,19.73,17.55,38.63,36.98,39.35
		c20.62,0.77,39-15.79,40.05-36.13c1.09-21.13-15.32-39.72-35.98-40.76C602.38,792.62,584.93,808.58,583.72,831.3z"/>
</g>
</svg>
