<?xml version="1.0" encoding="utf-8"?>
<!-- Generator: Adobe Illustrator 24.0.3, SVG Export Plug-In . SVG Version: 6.00 Build 0)  -->
<svg version="1.1" id="Layer_1" xmlns="http://www.w3.org/2000/svg" xmlns:xlink="http://www.w3.org/1999/xlink" x="0px" y="0px"
	 viewBox="0 0 1000 1000" style="enable-background:new 0 0 1000 1000;" xml:space="preserve">
<style type="text/css">
	.st0{fill:#DEDEDE;}
	.st1{fill:#969696;}
	.st2{fill:#B5B5B5;}
	.st3{fill:#F2F2F2;}
	.st4{fill:#808080;}
	.st5{fill:#A3A3A3;}
	.st6{fill:#FFFFFF;}
	.st7{fill:#696969;}
	.st8{fill:#5ACAFA;}
	.st9{fill:#1C99EB;}
	.st10{fill:#00AAFF;}
	.st11{fill:#939393;}
	.st12{fill:none;}
	.st13{fill:#8E8D92;}
	.st14{fill:#007AFF;}
	.st15{fill:#454545;}
	.st16{fill:#177BBD;}
	.st17{fill:#1A8FDB;}
	.st18{fill:#333333;}
	.st19{fill:#706F73;}
	.st20{fill:#454547;}
	.st21{fill:#5C5B5E;}
	.st22{fill:#CFCFCF;}
	.st23{fill:#666569;}
	.st24{fill:#94A4AD;}
	.st25{fill:#6DC2F2;}
	.st26{fill:#F0F2F3;}
	.st27{fill:#D77976;}
	.st28{fill:#B3BEC4;}
	.st29{fill:#4596EC;}
	.st30{fill:#E25241;}
	.st31{fill:#ADE7FF;}
	.st32{fill:#82D2F5;}
	.st33{fill:#685C79;}
	.st34{fill:#594F69;}
	.st35{fill:#FF2C5C;}
	.st36{fill:#4FB1F5;}
	.st37{fill:#FFD659;}
	.st38{fill:#E62753;}
	.st39{fill:#FFBD54;}
	.st40{fill:#346D92;}
	.st41{fill:#31B791;}
</style>
<g>
	<path class="st0" d="M-753.16,1613.58v29.81h-387.48v-29.81c0.05-16.44,13.37-29.76,29.81-29.81h327.87
		C-766.53,1583.82-753.21,1597.14-753.16,1613.58z"/>
	<path class="st1" d="M-797.87,1524.16l14.9,59.61h-327.87l14.9-59.61H-797.87z"/>
	<path class="st2" d="M-1334.39,1524.16c-32.92,0-59.61-26.69-59.61-59.61v-59.61h924v59.61c0,32.92-26.69,59.61-59.61,59.61
		H-1334.39z"/>
	<path class="st3" d="M-470,838.61v566.32h-924V838.61c0-32.92,26.69-59.61,59.61-59.61h804.77C-496.69,779-470,805.69-470,838.61z"
		/>
	<path class="st4" d="M-1019.59,1539.06h225.44l-3.73-14.9h-298.06l-14.9,59.61h33.58
		C-1070.47,1557.47-1046.75,1539.08-1019.59,1539.06L-1019.59,1539.06z"/>
	<path class="st2" d="M-1093.19,1583.77h-17.65c-16.44,0.05-29.76,13.37-29.81,29.81v29.81h387.48v-29.81h-298.06
		C-1070.12,1613.55-1086.94,1601.6-1093.19,1583.77z"/>
	<path class="st5" d="M-499.81,1404.94v59.61c0,16.46-13.34,29.81-29.81,29.81h-804.77c-16.46,0-29.81-13.34-29.81-29.81v-59.61
		H-1394v59.61c0,32.92,26.69,59.61,59.61,59.61h804.77c32.92,0,59.61-26.69,59.61-59.61v-59.61H-499.81z"/>
	<path class="st0" d="M-529.61,779h-804.77c-32.92,0-59.61,26.69-59.61,59.61v566.32h29.81V838.61c0-16.46,13.34-29.81,29.81-29.81
		h804.77c16.46,0,29.81,13.34,29.81,29.81v566.32H-470V838.61C-470,805.69-496.69,779-529.61,779z"/>
	<path class="st6" d="M-529.61,808.81h-774.97c0,296.57,359.94,536.52,804.77,536.52V838.61
		C-499.81,822.15-513.15,808.81-529.61,808.81z"/>
	<circle class="st4" cx="-1334.39" cy="1464.55" r="14.9"/>
	<path class="st7" d="M-1334.39,1464.55c-5.24-0.05-10.05-2.89-12.62-7.45c-1.42,2.23-2.21,4.81-2.28,7.45
		c0,8.23,6.67,14.9,14.9,14.9s14.9-6.67,14.9-14.9c-0.07-2.64-0.86-5.22-2.28-7.45
		C-1324.34,1461.65-1329.15,1464.49-1334.39,1464.55z"/>
	<path class="st5" d="M-1334.39,1479.45c-5.24-0.06-10.05-2.89-12.62-7.45c-1.42,2.23-2.21,4.81-2.28,7.45
		c0,8.23,6.67,14.9,14.9,14.9s14.9-6.67,14.9-14.9c-0.07-2.64-0.86-5.22-2.28-7.45C-1324.34,1476.56-1329.15,1479.4-1334.39,1479.45
		z"/>
	<path class="st4" d="M-1274.77,1449.65h59.61c8.23,0,14.9,6.67,14.9,14.9l0,0c0,8.23-6.67,14.9-14.9,14.9h-59.61
		c-8.23,0-14.9-6.67-14.9-14.9l0,0C-1289.68,1456.32-1283.01,1449.65-1274.77,1449.65z"/>
	<path class="st7" d="M-1215.16,1464.55h-59.61c-5.23-0.06-10.04-2.9-12.62-7.45c-1.42,2.23-2.21,4.81-2.28,7.45
		c0,8.23,6.67,14.9,14.9,14.9h59.61c8.23,0,14.9-6.67,14.9-14.9c-0.07-2.64-0.86-5.22-2.28-7.45
		C-1205.12,1461.65-1209.93,1464.49-1215.16,1464.55z"/>
	<path class="st5" d="M-1215.16,1479.45h-59.61c-5.23-0.06-10.04-2.9-12.62-7.45c-1.42,2.23-2.21,4.81-2.28,7.45
		c0,8.23,6.67,14.9,14.9,14.9h59.61c8.23,0,14.9-6.67,14.9-14.9c-0.07-2.64-0.86-5.22-2.28-7.45
		C-1205.12,1476.56-1209.93,1479.39-1215.16,1479.45z"/>
	<path class="st8" d="M-946.9,1613.58h417.29v29.81c0,32.92-26.69,59.61-59.61,59.61h-298.06c-32.92,0-59.61-26.69-59.61-59.61
		V1613.58z"/>
	<path class="st8" d="M-529.61,1047.26v14.9h-104.32c0,0,0,44.71-29.81,44.71h-149.03c-29.81,0-29.81-44.71-29.81-44.71H-946.9
		v-14.9c0-32.92,26.69-59.61,59.61-59.61h298.06C-556.3,987.65-529.61,1014.33-529.61,1047.26z"/>
	<path class="st0" d="M-529.61,1062.16v551.42H-946.9v-551.42h104.32c0,0,0,44.71,29.81,44.71h149.03
		c29.81,0,29.81-44.71,29.81-44.71H-529.61z"/>
	<path class="st8" d="M-812.77,1106.87h149.03c29.81,0,29.81-44.71,29.81-44.71h-208.65
		C-842.58,1062.16-842.58,1106.87-812.77,1106.87z"/>
	<path class="st9" d="M-589.23,1673.19h-298.06c-32.92,0-59.61-26.69-59.61-59.61v29.81c0,32.92,26.69,59.61,59.61,59.61h298.06
		c32.92,0,59.61-26.69,59.61-59.61v-29.81C-529.61,1646.5-556.3,1673.19-589.23,1673.19z"/>
	<path class="st3" d="M-633.94,1062.16c0,0,0,44.71-29.81,44.71h-149.03c-29.81,0-29.81-44.71-29.81-44.71h-44.71
		c0,247.13,159.97,447.1,357.68,447.1v-447.1H-633.94z"/>
	<path class="st9" d="M-887.29,1017.45h298.06c27.13,0.04,50.79,18.43,57.51,44.71h2.1v-14.9c0-32.92-26.69-59.61-59.61-59.61
		h-298.06c-32.92,0-59.61,26.69-59.61,59.61v14.9h2.1C-938.08,1035.88-914.42,1017.49-887.29,1017.45z"/>
	<circle class="st10" cx="-738.26" cy="1345.32" r="149.03"/>
	<path class="st3" d="M-842.58,1360.23l74.52,74.52l134.13-134.13l-44.71-44.71l-89.42,89.42l-29.81-29.81L-842.58,1360.23z"/>
	<path class="st11" d="M-1006.52,1032.35v-59.61h-33.25c-3.35-14.71-9.18-28.75-17.23-41.51l23.53-23.53l-42.15-42.15l-23.53,23.53
		c-12.76-8.05-26.79-13.88-41.51-17.23v-33.25h-59.61v33.25c-14.71,3.35-28.75,9.18-41.51,17.23l-23.53-23.53l-42.15,42.15
		l23.53,23.53c-8.05,12.76-13.88,26.79-17.23,41.51h-33.25v59.61h33.25c3.35,14.71,9.18,28.75,17.23,41.51l-23.53,23.53l42.15,42.15
		l23.53-23.53c12.76,8.05,26.79,13.88,41.51,17.23v33.25h59.61v-33.25c14.71-3.35,28.75-9.18,41.51-17.23l23.53,23.53l42.15-42.15
		l-23.53-23.53c8.05-12.76,13.88-26.79,17.23-41.51H-1006.52z"/>
	<circle class="st6" cx="-1170.45" cy="1002.55" r="59.61"/>
	<path class="st7" d="M-1170.45,928.03c-41.15,0-74.52,33.36-74.52,74.52s33.36,74.52,74.52,74.52c41.15,0,74.52-33.36,74.52-74.52
		S-1129.3,928.03-1170.45,928.03z M-1170.45,1062.16c-32.92,0-59.61-26.69-59.61-59.61s26.69-59.61,59.61-59.61
		c32.92,0,59.61,26.69,59.61,59.61S-1137.53,1062.16-1170.45,1062.16z"/>
	<path class="st2" d="M-1006.52,1032.35v-59.61h-33.25c-3.35-14.71-9.18-28.75-17.23-41.51l23.53-23.53l-42.15-42.15l-23.53,23.53
		c-12.76-8.05-26.79-13.88-41.51-17.23v-33.25h-59.61v33.25c-14.71,3.35-28.75,9.18-41.51,17.23l-23.53-23.53l-42.15,42.15
		l23.53,23.53c-8.05,12.76-13.88,26.79-17.23,41.51h-33.25v59.61h33.25c3.35,14.71,9.18,28.75,17.23,41.51l-23.53,23.53l42.15,42.15
		l23.53-23.53c12.76,8.05,26.79,13.88,41.51,17.23v33.25h59.61v-33.25c14.71-3.35,28.75-9.18,41.51-17.23l23.53,23.53l42.15-42.15
		l-23.53-23.53c8.05-12.76,13.88-26.79,17.23-41.51H-1006.52z M-1058.36,1080.15l-34.49,34.49l-19.26-19.25
		c-10.44,6.59-21.93,11.35-33.96,14.1v27.2h-48.76v-27.2c-12.04-2.75-23.52-7.51-33.96-14.1l-19.26,19.25l-34.49-34.49l19.26-19.26
		c-6.59-10.44-11.35-21.93-14.1-33.96h-27.2v-48.76h27.2c2.75-12.04,7.51-23.52,14.1-33.96l-19.26-19.25l34.49-34.49l19.26,19.25
		c10.44-6.59,21.93-11.35,33.96-14.1v-27.2h48.76v27.2c12.04,2.75,23.52,7.51,33.96,14.1l19.26-19.25l34.49,34.49l-19.25,19.25
		c6.59,10.44,11.35,21.93,14.1,33.96h27.2v48.76h-27.2c-2.75,12.04-7.51,23.52-14.1,33.96L-1058.36,1080.15z"/>
	<circle class="st12" cx="-1006.52" cy="1345.32" r="59.61"/>
	<path class="st13" d="M-1066.13,1345.32c0-32.92,26.69-59.61,59.61-59.61c32.92,0,59.61,26.69,59.61,59.61v-119.96
		c-9.47-4.76-19.48-8.36-29.81-10.73v-33.25h-59.61v33.25c-14.71,3.35-28.75,9.18-41.51,17.23l-23.53-23.53l-42.15,42.15
		l23.53,23.53c-8.05,12.76-13.88,26.79-17.23,41.51h-33.25v59.61h33.25c2.37,10.33,5.97,20.34,10.73,29.81h119.96
		C-1039.44,1404.94-1066.13,1378.25-1066.13,1345.32L-1066.13,1345.32z"/>
	<path class="st13" d="M-1006.52,1404.94h59.61v-59.61C-946.9,1378.25-973.59,1404.94-1006.52,1404.94z"/>
	<path class="st11" d="M-768.06,823.71h163.94c8.23,0,14.9,6.67,14.9,14.9l0,0c0,8.23-6.67,14.9-14.9,14.9h-163.94
		c-8.23,0-14.9-6.67-14.9-14.9l0,0C-782.97,830.38-776.3,823.71-768.06,823.71z"/>
	<path class="st11" d="M-559.42,823.71h14.9c8.23,0,14.9,6.67,14.9,14.9l0,0c0,8.23-6.67,14.9-14.9,14.9h-14.9
		c-8.23,0-14.9-6.67-14.9-14.9l0,0C-574.32,830.38-567.65,823.71-559.42,823.71z"/>
	<path class="st14" d="M-732.85,1399.53l-35.22,35.22l-74.52-74.52l23.85-23.77c-19.01-29.12-27.01-64.06-22.58-98.56
		c-59.38,56.94-61.36,151.23-4.43,210.61c56.94,59.38,151.23,61.36,210.61,4.43c24.83-23.8,40.65-55.47,44.78-89.61
		c-37.69,36.49-91.89,50.26-142.43,36.2H-732.85z"/>
	<path class="st0" d="M-768.06,1434.74l35.22-35.22c-35.42-9.73-66-32.19-85.89-63.07l-23.85,23.77L-768.06,1434.74z"/>
	<path class="st15" d="M-782.97,1643.39h89.42c8.23,0,14.9,6.67,14.9,14.9l0,0c0,8.23-6.67,14.9-14.9,14.9h-89.42
		c-8.23,0-14.9-6.67-14.9-14.9l0,0C-797.87,1650.06-791.2,1643.39-782.97,1643.39z"/>
	<path class="st16" d="M-693.55,1673.19h-89.42c-5.23-0.06-10.04-2.9-12.62-7.45c-1.42,2.23-2.21,4.81-2.28,7.45
		c0,8.23,6.67,14.9,14.9,14.9h89.42c8.23,0,14.9-6.67,14.9-14.9c-0.07-2.64-0.86-5.22-2.28-7.45
		C-683.51,1670.3-688.31,1673.14-693.55,1673.19z"/>
	<path class="st15" d="M-782.97,1032.35h89.42c8.23,0,14.9,6.67,14.9,14.9l0,0c0,8.23-6.67,14.9-14.9,14.9h-89.42
		c-8.23,0-14.9-6.67-14.9-14.9l0,0C-797.87,1039.03-791.2,1032.35-782.97,1032.35z"/>
	<path class="st17" d="M-693.55,1062.16h-89.42c-5.23-0.06-10.04-2.9-12.62-7.45c-1.42,2.23-2.21,4.81-2.28,7.45
		c0,8.23,6.67,14.9,14.9,14.9h89.42c8.23,0,14.9-6.67,14.9-14.9c-0.07-2.64-0.86-5.22-2.28-7.45
		C-683.51,1059.26-688.31,1062.1-693.55,1062.16z"/>
	<path class="st18" d="M-693.55,1047.26h-89.42c-5.23-0.06-10.04-2.9-12.62-7.45c-1.42,2.23-2.21,4.81-2.28,7.45
		c0,8.23,6.67,14.9,14.9,14.9h89.42c8.23,0,14.9-6.67,14.9-14.9c-0.07-2.64-0.86-5.22-2.28-7.45
		C-683.51,1044.36-688.31,1047.2-693.55,1047.26z"/>
	<path class="st18" d="M-693.55,1658.29h-89.42c-5.23-0.06-10.04-2.9-12.62-7.45c-1.42,2.23-2.21,4.81-2.28,7.45
		c0,8.23,6.67,14.9,14.9,14.9h89.42c8.23,0,14.9-6.67,14.9-14.9c-0.07-2.64-0.86-5.22-2.28-7.45
		C-683.51,1655.39-688.31,1658.23-693.55,1658.29z"/>
	<path class="st2" d="M-1006.52,1583.77h59.61v29.81h-59.61V1583.77z"/>
	<path class="st19" d="M-1006.52,1539.06h59.61v44.71h-59.61V1539.06z"/>
	<path class="st19" d="M-1006.52,1404.94h59.61v89.42h-59.61V1404.94z"/>
	<path class="st20" d="M-1006.52,1524.16h59.61v14.9h-59.61V1524.16z"/>
	<path class="st4" d="M-1006.52,1613.58h59.61v29.81h-59.61V1613.58z"/>
	<path class="st21" d="M-1006.52,1494.35h59.61v29.81h-59.61V1494.35z"/>
	<path class="st3" d="M-976.71,1214.64c10.33,2.37,20.34,5.97,29.81,10.73v-178.11c0.06-10.49,2.91-20.78,8.26-29.81h-8.26
		c-32.92,0-59.61,26.69-59.61,59.61v104.32h29.81V1214.64z"/>
	<path class="st22" d="M-946.9,1345.32c0-32.92-26.69-59.61-59.61-59.61v119.23C-973.59,1404.94-946.9,1378.25-946.9,1345.32z"/>
	<path class="st21" d="M-1006.52,1225.69v60.02c32.92,0,59.61,26.69,59.61,59.61v-90.27
		C-967.48,1245.87-987.35,1236.09-1006.52,1225.69L-1006.52,1225.69z"/>
	<path class="st19" d="M-946.9,1255.05v-29.69c-9.47-4.76-19.48-8.36-29.81-10.73v-33.25h-29.81v44.31
		C-987.33,1236.06-967.46,1245.84-946.9,1255.05z"/>
	<path class="st23" d="M-946.9,1345.32c0,32.92-26.69,59.61-59.61,59.61h59.61V1345.32z"/>
</g>
<g>
	<path class="st24" d="M1414.93,1349h766.13c32.55,0,58.93,26.39,58.93,58.93v559.87c0,32.55-26.39,58.93-58.93,58.93h-766.13
		c-32.55,0-58.93-26.39-58.93-58.93v-559.87C1356,1375.39,1382.39,1349,1414.93,1349z"/>
	<path class="st25" d="M1414.93,1407.93h766.13v500.93h-766.13V1407.93z"/>
	<path class="st26" d="M1473.87,1466.87h530.4v353.6h-530.4V1466.87z"/>
	<path class="st27" d="M1566.53,1647.97l58.93-58.93l20.83,20.83l-58.93,58.93L1566.53,1647.97z"/>
	<path class="st27" d="M1654.92,1609.89l20.83-20.83l117.85,117.85l-20.83,20.83L1654.92,1609.89z"/>
	<path class="st24" d="M1650.67,2144.6h294.67c24.41,0,44.2,19.79,44.2,44.2v44.2l0,0h-383.07l0,0v-44.2
		C1606.47,2164.39,1626.26,2144.6,1650.67,2144.6z"/>
	<path class="st28" d="M1694.87,2026.73h206.27v117.87h-206.27V2026.73z"/>
	<g>
		<path class="st6" d="M2166.33,1953.07h29.47v29.47h-29.47V1953.07z"/>
		<path class="st6" d="M2107.4,1953.07h29.47v29.47h-29.47V1953.07z"/>
		<path class="st6" d="M2033.73,1657.55c0.22,22.56,13.14,43.08,33.39,53.04c24.72,12.57,40.29,37.95,40.28,65.68
			c0,40.68-32.98,73.67-73.67,73.67h-58.93c-40.69,0-73.67-32.98-73.67-73.67c-0.01-27.73,15.56-53.11,40.28-65.68
			c20.25-9.96,33.16-30.48,33.39-53.04v-102.28h58.93V1657.55z"/>
		<path class="st6" d="M2048.47,1496.33h29.47v29.47h-29.47V1496.33z"/>
		<path class="st6" d="M2107.4,1452.13h29.47v29.47h-29.47V1452.13z"/>
		<path class="st6" d="M2092.67,1555.27h29.47v29.47h-29.47V1555.27z"/>
	</g>
	<path class="st29" d="M1901.13,1776.27c0,40.68,32.98,73.67,73.67,73.67h58.93c40.68-0.02,73.65-33.02,73.63-73.7
		c-0.01-10.13-2.1-20.15-6.15-29.43h-193.89C1903.24,1756.09,1901.14,1766.12,1901.13,1776.27L1901.13,1776.27z"/>
	<circle class="st30" cx="1562.27" cy="1673.13" r="29.47"/>
	<circle class="st30" cx="1650.67" cy="1584.73" r="29.47"/>
	<circle class="st30" cx="1798" cy="1732.07" r="29.47"/>
	<path class="st28" d="M1709.6,1511.07h221v29.47h-221V1511.07z"/>
	<path class="st28" d="M1739.07,1570h191.53v29.47h-191.53V1570z"/>
	<path class="st28" d="M1768.53,1628.93h162.07v29.47h-162.07V1628.93z"/>
</g>
<g id="surface1">
	<path class="st31" d="M1657.72,1887.01h-341.44c0,0,58.22-44.61,58.22-131.76h225C1599.5,1842.39,1657.72,1887.01,1657.72,1887.01z
		"/>
	<path class="st32" d="M1599.5,1755.25h-51.08c0,87.14,58.22,131.76,58.22,131.76h51.08
		C1657.72,1887.01,1599.5,1842.39,1599.5,1755.25z"/>
	<path class="st33" d="M1906.89,1764.33h-839.78c-15.52,0-28.11-12.58-28.11-28.1v-520.69c0-15.52,12.58-28.11,28.11-28.11h839.78
		c15.52,0,28.11,12.58,28.11,28.11v520.69C1935,1751.76,1922.42,1764.33,1906.89,1764.33z"/>
	<path class="st34" d="M1906.89,1187.44h-54.08c15.52,0,28.1,12.58,28.1,28.11v520.69c0,15.52-12.58,28.1-28.1,28.1h54.08
		c15.52,0,28.11-12.58,28.11-28.1v-520.69C1935,1200.02,1922.42,1187.44,1906.89,1187.44z"/>
	<path class="st31" d="M1093.09,1703.26v-454.73c0-3.87,3.13-7,7-7h773.83c3.87,0,7,3.13,7,7v454.73c0,3.86-3.13,7-7,7h-773.83
		C1096.22,1710.26,1093.09,1707.12,1093.09,1703.26z"/>
	<path class="st33" d="M1719.57,1932h-465.12c-14.94,0-27.04-12.11-27.04-27.04s12.11-27.04,27.04-27.04h465.12
		c14.94,0,27.04,12.11,27.04,27.04S1734.5,1932,1719.57,1932z"/>
	<path class="st34" d="M1719.57,1877.91h-54.31c14.93,0,27.04,12.11,27.04,27.04c0,14.94-12.11,27.04-27.04,27.04h54.31
		c14.93,0,27.04-12.11,27.04-27.04S1734.5,1877.91,1719.57,1877.91z"/>
	<path class="st35" d="M1758.1,1076.17c0,14.94-12.11,27.04-27.04,27.04s-27.04-12.11-27.04-27.04s12.11-27.04,27.04-27.04
		S1758.1,1061.23,1758.1,1076.17z"/>
	<path class="st35" d="M1514.04,1076.17c0,14.94-12.11,27.04-27.04,27.04s-27.04-12.11-27.04-27.04s12.11-27.04,27.04-27.04
		S1514.04,1061.23,1514.04,1076.17z"/>
	<path class="st35" d="M1269.99,1076.17c0,14.94-12.11,27.04-27.04,27.04s-27.04-12.11-27.04-27.04s12.11-27.04,27.04-27.04
		S1269.99,1061.23,1269.99,1076.17z"/>
	<path class="st34" d="M1771.22,1076.17c0-22.15-18.02-40.17-40.17-40.17s-40.17,18.02-40.17,40.17c0,17.55,11.32,32.5,27.04,37.95
		v19.23H1596.3c-7.25,0-13.12,5.88-13.12,13.12v201.94c0,7.25,5.87,13.12,13.12,13.12c7.25,0,13.12-5.88,13.12-13.12V1159.6h121.63
		c7.25,0,13.12-5.87,13.12-13.12v-32.35C1759.9,1108.67,1771.22,1093.72,1771.22,1076.17z M1731.06,1090.09
		c-7.68,0-13.92-6.24-13.92-13.92s6.24-13.92,13.92-13.92s13.92,6.24,13.92,13.92S1738.73,1090.09,1731.06,1090.09z"/>
	<path class="st34" d="M1487,1036c-22.15,0-40.17,18.02-40.17,40.17c0,17.55,11.32,32.5,27.04,37.95v182.89
		c0,7.25,5.88,13.12,13.12,13.12c7.25,0,13.12-5.87,13.12-13.12v-182.89c15.72-5.46,27.04-20.4,27.04-37.95
		C1527.17,1054.02,1509.15,1036,1487,1036z M1487,1090.09c-7.68,0-13.92-6.24-13.92-13.92s6.24-13.92,13.92-13.92
		s13.92,6.24,13.92,13.92S1494.68,1090.09,1487,1090.09z"/>
	<path class="st34" d="M1377.71,1133.35h-121.64v-19.23c15.72-5.46,27.04-20.4,27.04-37.95c0-22.15-18.02-40.17-40.17-40.17
		s-40.17,18.02-40.17,40.17c0,17.55,11.32,32.5,27.04,37.95v32.35c0,7.25,5.88,13.12,13.12,13.12h121.64v188.82
		c0,7.25,5.87,13.12,13.12,13.12c7.25,0,13.12-5.88,13.12-13.12v-201.94C1390.83,1139.23,1384.95,1133.35,1377.71,1133.35z
		 M1242.94,1062.25c7.68,0,13.92,6.24,13.92,13.92s-6.24,13.92-13.92,13.92c-7.67,0-13.92-6.24-13.92-13.92
		S1235.27,1062.25,1242.94,1062.25z"/>
	<path class="st35" d="M1661.88,1374.05v207.27c0,4.06-2.32,7.74-5.98,9.49l-47.28,22.59l-117.08,55.92
		c-1.44,0.68-2.99,1.02-4.53,1.02s-3.1-0.33-4.53-1.02l-164.36-78.52c-3.66-1.75-5.99-5.43-5.99-9.49v-207.27
		c0-2.11,0.63-4.1,1.75-5.78c1.02-1.56,2.47-2.86,4.24-3.69l118.72-56.72l45.64-21.81c2.87-1.38,6.19-1.38,9.06,0l164.36,78.52
		c1.76,0.83,3.22,2.13,4.23,3.69C1661.25,1369.95,1661.88,1371.95,1661.88,1374.05z"/>
	<path class="st36" d="M1487,1450.98v219.37c-1.54,0-3.1-0.33-4.53-1.02l-164.36-78.52c-3.66-1.75-5.99-5.43-5.99-9.49v-207.27
		c0-2.11,0.63-4.1,1.75-5.78L1487,1450.98z"/>
	<path class="st37" d="M1661.88,1374.05v207.27c0,4.06-2.32,7.74-5.98,9.49l-47.28,22.59l-117.08,55.92
		c-1.44,0.68-2.99,1.02-4.53,1.02v-219.37l120.78-57.7l52.34-25.01C1661.25,1369.95,1661.88,1371.95,1661.88,1374.05z"/>
	<path class="st38" d="M1660.13,1368.27l-52.34,25.01l-170.95-85.42l45.64-21.81c2.87-1.38,6.19-1.38,9.06,0l164.36,78.52
		C1657.66,1365.42,1659.12,1366.72,1660.13,1368.27z"/>
	<path class="st39" d="M1661.88,1374.05v207.27c0,4.06-2.32,7.74-5.98,9.49l-47.28,22.59l-0.83-220.12l52.34-25.01
		C1661.25,1369.95,1661.88,1371.95,1661.88,1374.05z"/>
</g>
<g>
	<g>
		<circle class="st40" cx="500" cy="736.92" r="63.17"/>
		<path class="st40" d="M610.54,910.62c0.03-61.05-49.44-110.57-110.49-110.59c-1.15,0-2.3,0.02-3.45,0.05
			c-60.79,3.5-108.03,54.28-107.15,115.17v26.96c0,8.72,7.07,15.79,15.79,15.79h189.5c8.72,0,15.79-7.07,15.79-15.79V910.62z"/>
		<circle class="st40" cx="152.58" cy="736.92" r="63.17"/>
		<path class="st40" d="M263.12,910.62c0.03-61.05-49.44-110.57-110.49-110.59c-1.15,0-2.3,0.02-3.45,0.05
			c-60.79,3.5-108.03,54.28-107.15,115.17v26.96c0,8.72,7.07,15.79,15.79,15.79h189.5c8.72,0,15.79-7.07,15.79-15.79V910.62z"/>
		<circle class="st40" cx="847.41" cy="736.92" r="63.17"/>
		<path class="st40" d="M957.96,910.62c0.03-61.05-49.44-110.57-110.49-110.59c-1.15,0-2.3,0.02-3.45,0.05
			c-60.79,3.5-108.03,54.28-107.15,115.17v26.96c0,8.72,7.07,15.79,15.79,15.79h189.5c8.72,0,15.79-7.07,15.79-15.79V910.62z"/>
	</g>
	<path class="st41" d="M593.75,184.2h-38.48c-4.36,0-7.9,3.54-7.9,7.9v355.31c0,26.16-21.21,47.38-47.38,47.38
		s-47.38-21.21-47.38-47.38V192.1c0-4.36-3.54-7.9-7.9-7.9h-38.85c-9.18,0-16.63-7.45-16.62-16.64c0-4,1.45-7.87,4.07-10.89
		l94.51-108.96c5.56-6.72,15.52-7.65,22.24-2.08c0.76,0.63,1.46,1.33,2.08,2.08l94.28,108.65c6.11,6.98,5.4,17.58-1.58,23.69
		C601.78,182.74,597.83,184.22,593.75,184.2z"/>
	<path class="st41" d="M246.57,326.33h-38.48c-4.36,0-7.9,3.54-7.9,7.9v213.19c0,26.16-21.21,47.38-47.38,47.38
		c-26.16,0-47.38-21.21-47.38-47.38V334.23c0-4.36-3.54-7.9-7.9-7.9H58.7c-9.18,0.04-16.66-7.37-16.7-16.56
		c-0.02-4.03,1.43-7.93,4.07-10.97l94.51-108.96c5.56-6.72,15.52-7.65,22.24-2.08c0.76,0.63,1.46,1.33,2.08,2.08l94.28,108.65
		c6.11,6.98,5.4,17.58-1.58,23.69C254.54,324.85,250.63,326.32,246.57,326.33z"/>
	<path class="st41" d="M941.14,231.58h-38.45c-4.36,0-7.9,3.54-7.9,7.9v307.94c0,26.16-21.21,47.38-47.38,47.38
		s-47.38-21.21-47.38-47.38V239.48c0-4.36-3.54-7.9-7.9-7.9H753.3c-9.18,0-16.63-7.45-16.62-16.64c0-4,1.45-7.87,4.07-10.89
		l94.51-108.96c5.56-6.72,15.52-7.65,22.24-2.08c0.76,0.63,1.46,1.33,2.08,2.08l94.28,108.65c6.11,6.98,5.4,17.58-1.58,23.69
		C949.19,230.12,945.23,231.6,941.14,231.58L941.14,231.58z"/>
</g>
</svg>
